M48
; DRILL file {KiCad 7.0.7} date Thu Oct  5 10:47:24 2023
; FORMAT={-:-/ absolute / inch / decimal}
; #@! TF.CreationDate,2023-10-05T10:47:24+02:00
; #@! TF.GenerationSoftware,Kicad,Pcbnew,7.0.7
; #@! TF.FileFunction,Plated,1,4,PTH
FMAT,2
INCH
; #@! TA.AperFunction,Plated,PTH,ComponentDrill
T1C0.0079
; #@! TA.AperFunction,Plated,PTH,ViaDrill
T2C0.0118
; #@! TA.AperFunction,Plated,PTH,ViaDrill
T3C0.0157
; #@! TA.AperFunction,Plated,PTH,ComponentDrill
T4C0.0236
%
G90
G05
T1
X4.6482Y-2.6661
X4.6482Y-2.7213
X4.6758Y-2.6386
X4.6758Y-2.6937
X4.6758Y-2.7488
X4.7033Y-2.6661
X4.7033Y-2.7213
X4.7309Y-2.6386
X4.7309Y-2.6937
X4.7309Y-2.7488
X4.7585Y-2.6661
X4.7585Y-2.7213
T2
X3.7663Y-2.774
X3.7663Y-2.963
X3.8884Y-2.8902
X4.4803Y-2.7421
X4.9272Y-3.1555
X5.0315Y-2.9409
X5.2165Y-2.9488
X5.2742Y-2.9512
X5.4632Y-3.0339
X5.4932Y-3.0339
X5.5262Y-3.0339
T3
X3.48Y-3.11
X3.48Y-3.16
X3.48Y-3.21
X3.5Y-2.61
X3.5Y-2.8031
X3.5Y-2.8681
X3.5Y-2.9331
X3.53Y-3.11
X3.53Y-3.16
X3.53Y-3.21
X3.58Y-3.21
X3.63Y-3.21
X3.68Y-3.21
X3.73Y-3.21
X3.74Y-2.74
X3.7657Y-3.0276
X3.83Y-2.95
X3.83Y-3.0
X3.88Y-2.95
X3.88Y-3.0
X3.9081Y-2.7351
X3.93Y-2.95
X3.93Y-3.0
X3.98Y-2.95
X3.98Y-3.0
X4.03Y-2.95
X4.03Y-3.0
X4.05Y-2.65
X4.11Y-2.74
X4.1876Y-2.73
X4.21Y-2.55
X4.2506Y-2.73
X4.27Y-2.44
X4.4Y-3.17
X4.4Y-3.22
X4.45Y-3.17
X4.45Y-3.22
X4.4848Y-2.3921
X4.49Y-2.81
X4.49Y-2.91
X4.49Y-3.01
X4.5Y-3.17
X4.5Y-3.22
X4.54Y-2.86
X4.54Y-2.96
X4.55Y-3.17
X4.55Y-3.22
X4.59Y-2.91
X4.59Y-3.01
X4.6Y-3.17
X4.6Y-3.22
X4.6148Y-2.3921
X4.64Y-2.96
X4.65Y-3.17
X4.65Y-3.22
X4.69Y-3.01
X4.7604Y-2.3921
X4.8287Y-2.4665
X4.8287Y-2.565
X4.8287Y-2.6634
X4.8287Y-2.7618
X4.8287Y-2.8602
X4.914Y-2.3921
X4.9252Y-2.565
X4.9252Y-2.7618
X4.9272Y-2.4665
X4.9272Y-2.6634
X4.9272Y-2.8602
X5.0256Y-2.4665
X5.0256Y-2.565
X5.0256Y-2.6634
X5.0256Y-2.7618
X5.0256Y-2.8602
X5.0478Y-2.3921
X5.189Y-2.4016
X5.189Y-2.4803
X5.189Y-2.5591
X5.189Y-2.6378
X5.189Y-2.7165
X5.189Y-2.7953
X5.2624Y-3.0732
X5.2624Y-3.0024
X5.2677Y-2.4016
X5.2677Y-2.4803
X5.2677Y-2.5591
X5.2677Y-2.6378
X5.2677Y-2.7165
X5.2677Y-2.7953
X5.2742Y-2.9079
X5.315Y-2.4184
X5.3189Y-3.1299
X5.3465Y-2.5591
X5.3465Y-2.6378
X5.3465Y-2.7165
X5.3465Y-2.7953
X5.4159Y-3.1126
X5.4252Y-2.5591
X5.4252Y-2.6378
X5.4252Y-2.7165
X5.4252Y-2.7953
X5.4514Y-2.9079
X5.5392Y-2.595
X5.6285Y-3.1874
X5.6325Y-3.0535
X5.6337Y-2.6422
X5.6378Y-2.5669
X5.6732Y-2.4184
X5.68Y-2.85
X5.7165Y-2.4094
X5.7165Y-2.4882
X5.7165Y-2.5669
X5.7165Y-2.6457
X5.7165Y-2.7244
X5.7165Y-2.8031
X5.75Y-3.12
X5.7953Y-2.4094
X5.7953Y-2.4882
X5.7953Y-2.5669
X5.7953Y-2.6457
X5.7953Y-2.7244
X5.7953Y-2.8031
X5.8136Y-2.9394
X5.8136Y-3.0102
T4
G00X3.5157Y-2.6984
M15
G01X3.4843Y-2.6984
M16
G05
G00X3.5157Y-3.0386
M15
G01X3.4843Y-3.0386
M16
G05
G00X3.6862Y-2.6984
M15
G01X3.6429Y-2.6984
M16
G05
G00X3.6862Y-3.0386
M15
G01X3.6429Y-3.0386
M16
G05
T0
M30
