%TF.GenerationSoftware,KiCad,Pcbnew,7.0.7*%
%TF.CreationDate,2023-10-03T10:06:36+02:00*%
%TF.ProjectId,ESPxRF,45535078-5246-42e6-9b69-6361645f7063,rev?*%
%TF.SameCoordinates,Original*%
%TF.FileFunction,Legend,Top*%
%TF.FilePolarity,Positive*%
%FSLAX46Y46*%
G04 Gerber Fmt 4.6, Leading zero omitted, Abs format (unit mm)*
G04 Created by KiCad (PCBNEW 7.0.7) date 2023-10-03 10:06:36*
%MOMM*%
%LPD*%
G01*
G04 APERTURE LIST*
%ADD10C,0.150000*%
%ADD11C,0.250000*%
%ADD12C,0.120000*%
%ADD13C,0.127000*%
%ADD14C,0.200000*%
G04 APERTURE END LIST*
D10*
X96221779Y-78041009D02*
X96555112Y-78041009D01*
X96697969Y-78564819D02*
X96221779Y-78564819D01*
X96221779Y-78564819D02*
X96221779Y-77564819D01*
X96221779Y-77564819D02*
X96697969Y-77564819D01*
X97078922Y-78517200D02*
X97221779Y-78564819D01*
X97221779Y-78564819D02*
X97459874Y-78564819D01*
X97459874Y-78564819D02*
X97555112Y-78517200D01*
X97555112Y-78517200D02*
X97602731Y-78469580D01*
X97602731Y-78469580D02*
X97650350Y-78374342D01*
X97650350Y-78374342D02*
X97650350Y-78279104D01*
X97650350Y-78279104D02*
X97602731Y-78183866D01*
X97602731Y-78183866D02*
X97555112Y-78136247D01*
X97555112Y-78136247D02*
X97459874Y-78088628D01*
X97459874Y-78088628D02*
X97269398Y-78041009D01*
X97269398Y-78041009D02*
X97174160Y-77993390D01*
X97174160Y-77993390D02*
X97126541Y-77945771D01*
X97126541Y-77945771D02*
X97078922Y-77850533D01*
X97078922Y-77850533D02*
X97078922Y-77755295D01*
X97078922Y-77755295D02*
X97126541Y-77660057D01*
X97126541Y-77660057D02*
X97174160Y-77612438D01*
X97174160Y-77612438D02*
X97269398Y-77564819D01*
X97269398Y-77564819D02*
X97507493Y-77564819D01*
X97507493Y-77564819D02*
X97650350Y-77612438D01*
X98078922Y-78564819D02*
X98078922Y-77564819D01*
X98078922Y-77564819D02*
X98459874Y-77564819D01*
X98459874Y-77564819D02*
X98555112Y-77612438D01*
X98555112Y-77612438D02*
X98602731Y-77660057D01*
X98602731Y-77660057D02*
X98650350Y-77755295D01*
X98650350Y-77755295D02*
X98650350Y-77898152D01*
X98650350Y-77898152D02*
X98602731Y-77993390D01*
X98602731Y-77993390D02*
X98555112Y-78041009D01*
X98555112Y-78041009D02*
X98459874Y-78088628D01*
X98459874Y-78088628D02*
X98078922Y-78088628D01*
X99078922Y-78183866D02*
X99840827Y-78183866D01*
X100888445Y-78564819D02*
X100555112Y-78088628D01*
X100317017Y-78564819D02*
X100317017Y-77564819D01*
X100317017Y-77564819D02*
X100697969Y-77564819D01*
X100697969Y-77564819D02*
X100793207Y-77612438D01*
X100793207Y-77612438D02*
X100840826Y-77660057D01*
X100840826Y-77660057D02*
X100888445Y-77755295D01*
X100888445Y-77755295D02*
X100888445Y-77898152D01*
X100888445Y-77898152D02*
X100840826Y-77993390D01*
X100840826Y-77993390D02*
X100793207Y-78041009D01*
X100793207Y-78041009D02*
X100697969Y-78088628D01*
X100697969Y-78088628D02*
X100317017Y-78088628D01*
X101650350Y-78041009D02*
X101317017Y-78041009D01*
X101317017Y-78564819D02*
X101317017Y-77564819D01*
X101317017Y-77564819D02*
X101793207Y-77564819D01*
X102650350Y-78564819D02*
X102174160Y-78564819D01*
X102174160Y-78564819D02*
X102174160Y-77564819D01*
X102983684Y-78564819D02*
X102983684Y-77564819D01*
X103459874Y-78564819D02*
X103459874Y-77564819D01*
X103459874Y-77564819D02*
X104031302Y-78564819D01*
X104031302Y-78564819D02*
X104031302Y-77564819D01*
X104507493Y-78564819D02*
X104507493Y-77564819D01*
X105078921Y-78564819D02*
X104650350Y-77993390D01*
X105078921Y-77564819D02*
X104507493Y-78136247D01*
X96078922Y-79174819D02*
X96650350Y-79174819D01*
X96364636Y-80174819D02*
X96364636Y-79174819D01*
X96983684Y-80174819D02*
X96983684Y-79174819D01*
X97412255Y-80174819D02*
X97412255Y-79651009D01*
X97412255Y-79651009D02*
X97364636Y-79555771D01*
X97364636Y-79555771D02*
X97269398Y-79508152D01*
X97269398Y-79508152D02*
X97126541Y-79508152D01*
X97126541Y-79508152D02*
X97031303Y-79555771D01*
X97031303Y-79555771D02*
X96983684Y-79603390D01*
X98031303Y-80174819D02*
X97936065Y-80127200D01*
X97936065Y-80127200D02*
X97888446Y-80079580D01*
X97888446Y-80079580D02*
X97840827Y-79984342D01*
X97840827Y-79984342D02*
X97840827Y-79698628D01*
X97840827Y-79698628D02*
X97888446Y-79603390D01*
X97888446Y-79603390D02*
X97936065Y-79555771D01*
X97936065Y-79555771D02*
X98031303Y-79508152D01*
X98031303Y-79508152D02*
X98174160Y-79508152D01*
X98174160Y-79508152D02*
X98269398Y-79555771D01*
X98269398Y-79555771D02*
X98317017Y-79603390D01*
X98317017Y-79603390D02*
X98364636Y-79698628D01*
X98364636Y-79698628D02*
X98364636Y-79984342D01*
X98364636Y-79984342D02*
X98317017Y-80079580D01*
X98317017Y-80079580D02*
X98269398Y-80127200D01*
X98269398Y-80127200D02*
X98174160Y-80174819D01*
X98174160Y-80174819D02*
X98031303Y-80174819D01*
X98793208Y-80174819D02*
X98793208Y-79508152D01*
X98793208Y-79603390D02*
X98840827Y-79555771D01*
X98840827Y-79555771D02*
X98936065Y-79508152D01*
X98936065Y-79508152D02*
X99078922Y-79508152D01*
X99078922Y-79508152D02*
X99174160Y-79555771D01*
X99174160Y-79555771D02*
X99221779Y-79651009D01*
X99221779Y-79651009D02*
X99221779Y-80174819D01*
X99221779Y-79651009D02*
X99269398Y-79555771D01*
X99269398Y-79555771D02*
X99364636Y-79508152D01*
X99364636Y-79508152D02*
X99507493Y-79508152D01*
X99507493Y-79508152D02*
X99602732Y-79555771D01*
X99602732Y-79555771D02*
X99650351Y-79651009D01*
X99650351Y-79651009D02*
X99650351Y-80174819D01*
X100555112Y-80174819D02*
X100555112Y-79651009D01*
X100555112Y-79651009D02*
X100507493Y-79555771D01*
X100507493Y-79555771D02*
X100412255Y-79508152D01*
X100412255Y-79508152D02*
X100221779Y-79508152D01*
X100221779Y-79508152D02*
X100126541Y-79555771D01*
X100555112Y-80127200D02*
X100459874Y-80174819D01*
X100459874Y-80174819D02*
X100221779Y-80174819D01*
X100221779Y-80174819D02*
X100126541Y-80127200D01*
X100126541Y-80127200D02*
X100078922Y-80031961D01*
X100078922Y-80031961D02*
X100078922Y-79936723D01*
X100078922Y-79936723D02*
X100126541Y-79841485D01*
X100126541Y-79841485D02*
X100221779Y-79793866D01*
X100221779Y-79793866D02*
X100459874Y-79793866D01*
X100459874Y-79793866D02*
X100555112Y-79746247D01*
X100983684Y-80127200D02*
X101078922Y-80174819D01*
X101078922Y-80174819D02*
X101269398Y-80174819D01*
X101269398Y-80174819D02*
X101364636Y-80127200D01*
X101364636Y-80127200D02*
X101412255Y-80031961D01*
X101412255Y-80031961D02*
X101412255Y-79984342D01*
X101412255Y-79984342D02*
X101364636Y-79889104D01*
X101364636Y-79889104D02*
X101269398Y-79841485D01*
X101269398Y-79841485D02*
X101126541Y-79841485D01*
X101126541Y-79841485D02*
X101031303Y-79793866D01*
X101031303Y-79793866D02*
X100983684Y-79698628D01*
X100983684Y-79698628D02*
X100983684Y-79651009D01*
X100983684Y-79651009D02*
X101031303Y-79555771D01*
X101031303Y-79555771D02*
X101126541Y-79508152D01*
X101126541Y-79508152D02*
X101269398Y-79508152D01*
X101269398Y-79508152D02*
X101364636Y-79555771D01*
X102555113Y-80127200D02*
X102697970Y-80174819D01*
X102697970Y-80174819D02*
X102936065Y-80174819D01*
X102936065Y-80174819D02*
X103031303Y-80127200D01*
X103031303Y-80127200D02*
X103078922Y-80079580D01*
X103078922Y-80079580D02*
X103126541Y-79984342D01*
X103126541Y-79984342D02*
X103126541Y-79889104D01*
X103126541Y-79889104D02*
X103078922Y-79793866D01*
X103078922Y-79793866D02*
X103031303Y-79746247D01*
X103031303Y-79746247D02*
X102936065Y-79698628D01*
X102936065Y-79698628D02*
X102745589Y-79651009D01*
X102745589Y-79651009D02*
X102650351Y-79603390D01*
X102650351Y-79603390D02*
X102602732Y-79555771D01*
X102602732Y-79555771D02*
X102555113Y-79460533D01*
X102555113Y-79460533D02*
X102555113Y-79365295D01*
X102555113Y-79365295D02*
X102602732Y-79270057D01*
X102602732Y-79270057D02*
X102650351Y-79222438D01*
X102650351Y-79222438D02*
X102745589Y-79174819D01*
X102745589Y-79174819D02*
X102983684Y-79174819D01*
X102983684Y-79174819D02*
X103126541Y-79222438D01*
X103555113Y-80079580D02*
X103602732Y-80127200D01*
X103602732Y-80127200D02*
X103555113Y-80174819D01*
X103555113Y-80174819D02*
X103507494Y-80127200D01*
X103507494Y-80127200D02*
X103555113Y-80079580D01*
X103555113Y-80079580D02*
X103555113Y-80174819D01*
X104793208Y-80174819D02*
X104793208Y-79174819D01*
X104793208Y-79174819D02*
X105174160Y-79174819D01*
X105174160Y-79174819D02*
X105269398Y-79222438D01*
X105269398Y-79222438D02*
X105317017Y-79270057D01*
X105317017Y-79270057D02*
X105364636Y-79365295D01*
X105364636Y-79365295D02*
X105364636Y-79508152D01*
X105364636Y-79508152D02*
X105317017Y-79603390D01*
X105317017Y-79603390D02*
X105269398Y-79651009D01*
X105269398Y-79651009D02*
X105174160Y-79698628D01*
X105174160Y-79698628D02*
X104793208Y-79698628D01*
X106174160Y-80127200D02*
X106078922Y-80174819D01*
X106078922Y-80174819D02*
X105888446Y-80174819D01*
X105888446Y-80174819D02*
X105793208Y-80127200D01*
X105793208Y-80127200D02*
X105745589Y-80031961D01*
X105745589Y-80031961D02*
X105745589Y-79651009D01*
X105745589Y-79651009D02*
X105793208Y-79555771D01*
X105793208Y-79555771D02*
X105888446Y-79508152D01*
X105888446Y-79508152D02*
X106078922Y-79508152D01*
X106078922Y-79508152D02*
X106174160Y-79555771D01*
X106174160Y-79555771D02*
X106221779Y-79651009D01*
X106221779Y-79651009D02*
X106221779Y-79746247D01*
X106221779Y-79746247D02*
X105745589Y-79841485D01*
X106650351Y-80174819D02*
X106650351Y-79508152D01*
X106650351Y-79698628D02*
X106697970Y-79603390D01*
X106697970Y-79603390D02*
X106745589Y-79555771D01*
X106745589Y-79555771D02*
X106840827Y-79508152D01*
X106840827Y-79508152D02*
X106936065Y-79508152D01*
X107269399Y-80174819D02*
X107269399Y-79508152D01*
X107269399Y-79698628D02*
X107317018Y-79603390D01*
X107317018Y-79603390D02*
X107364637Y-79555771D01*
X107364637Y-79555771D02*
X107459875Y-79508152D01*
X107459875Y-79508152D02*
X107555113Y-79508152D01*
X107888447Y-80174819D02*
X107888447Y-79508152D01*
X107888447Y-79174819D02*
X107840828Y-79222438D01*
X107840828Y-79222438D02*
X107888447Y-79270057D01*
X107888447Y-79270057D02*
X107936066Y-79222438D01*
X107936066Y-79222438D02*
X107888447Y-79174819D01*
X107888447Y-79174819D02*
X107888447Y-79270057D01*
X96745588Y-80832438D02*
X96650350Y-80784819D01*
X96650350Y-80784819D02*
X96507493Y-80784819D01*
X96507493Y-80784819D02*
X96364636Y-80832438D01*
X96364636Y-80832438D02*
X96269398Y-80927676D01*
X96269398Y-80927676D02*
X96221779Y-81022914D01*
X96221779Y-81022914D02*
X96174160Y-81213390D01*
X96174160Y-81213390D02*
X96174160Y-81356247D01*
X96174160Y-81356247D02*
X96221779Y-81546723D01*
X96221779Y-81546723D02*
X96269398Y-81641961D01*
X96269398Y-81641961D02*
X96364636Y-81737200D01*
X96364636Y-81737200D02*
X96507493Y-81784819D01*
X96507493Y-81784819D02*
X96602731Y-81784819D01*
X96602731Y-81784819D02*
X96745588Y-81737200D01*
X96745588Y-81737200D02*
X96793207Y-81689580D01*
X96793207Y-81689580D02*
X96793207Y-81356247D01*
X96793207Y-81356247D02*
X96602731Y-81356247D01*
X97221779Y-81784819D02*
X97221779Y-80784819D01*
X97221779Y-81261009D02*
X97793207Y-81261009D01*
X97793207Y-81784819D02*
X97793207Y-80784819D01*
X98269398Y-81689580D02*
X98317017Y-81737200D01*
X98317017Y-81737200D02*
X98269398Y-81784819D01*
X98269398Y-81784819D02*
X98221779Y-81737200D01*
X98221779Y-81737200D02*
X98269398Y-81689580D01*
X98269398Y-81689580D02*
X98269398Y-81784819D01*
X98269398Y-81165771D02*
X98317017Y-81213390D01*
X98317017Y-81213390D02*
X98269398Y-81261009D01*
X98269398Y-81261009D02*
X98221779Y-81213390D01*
X98221779Y-81213390D02*
X98269398Y-81165771D01*
X98269398Y-81165771D02*
X98269398Y-81261009D01*
X99364636Y-80784819D02*
X99936064Y-80784819D01*
X99650350Y-81784819D02*
X99650350Y-80784819D01*
X100412255Y-81784819D02*
X100317017Y-81737200D01*
X100317017Y-81737200D02*
X100269398Y-81689580D01*
X100269398Y-81689580D02*
X100221779Y-81594342D01*
X100221779Y-81594342D02*
X100221779Y-81308628D01*
X100221779Y-81308628D02*
X100269398Y-81213390D01*
X100269398Y-81213390D02*
X100317017Y-81165771D01*
X100317017Y-81165771D02*
X100412255Y-81118152D01*
X100412255Y-81118152D02*
X100555112Y-81118152D01*
X100555112Y-81118152D02*
X100650350Y-81165771D01*
X100650350Y-81165771D02*
X100697969Y-81213390D01*
X100697969Y-81213390D02*
X100745588Y-81308628D01*
X100745588Y-81308628D02*
X100745588Y-81594342D01*
X100745588Y-81594342D02*
X100697969Y-81689580D01*
X100697969Y-81689580D02*
X100650350Y-81737200D01*
X100650350Y-81737200D02*
X100555112Y-81784819D01*
X100555112Y-81784819D02*
X100412255Y-81784819D01*
X101174160Y-81784819D02*
X101174160Y-81118152D01*
X101174160Y-81213390D02*
X101221779Y-81165771D01*
X101221779Y-81165771D02*
X101317017Y-81118152D01*
X101317017Y-81118152D02*
X101459874Y-81118152D01*
X101459874Y-81118152D02*
X101555112Y-81165771D01*
X101555112Y-81165771D02*
X101602731Y-81261009D01*
X101602731Y-81261009D02*
X101602731Y-81784819D01*
X101602731Y-81261009D02*
X101650350Y-81165771D01*
X101650350Y-81165771D02*
X101745588Y-81118152D01*
X101745588Y-81118152D02*
X101888445Y-81118152D01*
X101888445Y-81118152D02*
X101983684Y-81165771D01*
X101983684Y-81165771D02*
X102031303Y-81261009D01*
X102031303Y-81261009D02*
X102031303Y-81784819D01*
X102507493Y-81784819D02*
X102507493Y-81118152D01*
X102507493Y-81213390D02*
X102555112Y-81165771D01*
X102555112Y-81165771D02*
X102650350Y-81118152D01*
X102650350Y-81118152D02*
X102793207Y-81118152D01*
X102793207Y-81118152D02*
X102888445Y-81165771D01*
X102888445Y-81165771D02*
X102936064Y-81261009D01*
X102936064Y-81261009D02*
X102936064Y-81784819D01*
X102936064Y-81261009D02*
X102983683Y-81165771D01*
X102983683Y-81165771D02*
X103078921Y-81118152D01*
X103078921Y-81118152D02*
X103221778Y-81118152D01*
X103221778Y-81118152D02*
X103317017Y-81165771D01*
X103317017Y-81165771D02*
X103364636Y-81261009D01*
X103364636Y-81261009D02*
X103364636Y-81784819D01*
X103745588Y-81118152D02*
X103983683Y-81784819D01*
X104221778Y-81118152D02*
X103983683Y-81784819D01*
X103983683Y-81784819D02*
X103888445Y-82022914D01*
X103888445Y-82022914D02*
X103840826Y-82070533D01*
X103840826Y-82070533D02*
X103745588Y-82118152D01*
X104555112Y-80880057D02*
X104602731Y-80832438D01*
X104602731Y-80832438D02*
X104697969Y-80784819D01*
X104697969Y-80784819D02*
X104936064Y-80784819D01*
X104936064Y-80784819D02*
X105031302Y-80832438D01*
X105031302Y-80832438D02*
X105078921Y-80880057D01*
X105078921Y-80880057D02*
X105126540Y-80975295D01*
X105126540Y-80975295D02*
X105126540Y-81070533D01*
X105126540Y-81070533D02*
X105078921Y-81213390D01*
X105078921Y-81213390D02*
X104507493Y-81784819D01*
X104507493Y-81784819D02*
X105126540Y-81784819D01*
X105459874Y-80784819D02*
X106126540Y-80784819D01*
X106126540Y-80784819D02*
X105697969Y-81784819D01*
X106697969Y-80784819D02*
X106793207Y-80784819D01*
X106793207Y-80784819D02*
X106888445Y-80832438D01*
X106888445Y-80832438D02*
X106936064Y-80880057D01*
X106936064Y-80880057D02*
X106983683Y-80975295D01*
X106983683Y-80975295D02*
X107031302Y-81165771D01*
X107031302Y-81165771D02*
X107031302Y-81403866D01*
X107031302Y-81403866D02*
X106983683Y-81594342D01*
X106983683Y-81594342D02*
X106936064Y-81689580D01*
X106936064Y-81689580D02*
X106888445Y-81737200D01*
X106888445Y-81737200D02*
X106793207Y-81784819D01*
X106793207Y-81784819D02*
X106697969Y-81784819D01*
X106697969Y-81784819D02*
X106602731Y-81737200D01*
X106602731Y-81737200D02*
X106555112Y-81689580D01*
X106555112Y-81689580D02*
X106507493Y-81594342D01*
X106507493Y-81594342D02*
X106459874Y-81403866D01*
X106459874Y-81403866D02*
X106459874Y-81165771D01*
X106459874Y-81165771D02*
X106507493Y-80975295D01*
X106507493Y-80975295D02*
X106555112Y-80880057D01*
X106555112Y-80880057D02*
X106602731Y-80832438D01*
X106602731Y-80832438D02*
X106697969Y-80784819D01*
X107936064Y-80784819D02*
X107459874Y-80784819D01*
X107459874Y-80784819D02*
X107412255Y-81261009D01*
X107412255Y-81261009D02*
X107459874Y-81213390D01*
X107459874Y-81213390D02*
X107555112Y-81165771D01*
X107555112Y-81165771D02*
X107793207Y-81165771D01*
X107793207Y-81165771D02*
X107888445Y-81213390D01*
X107888445Y-81213390D02*
X107936064Y-81261009D01*
X107936064Y-81261009D02*
X107983683Y-81356247D01*
X107983683Y-81356247D02*
X107983683Y-81594342D01*
X107983683Y-81594342D02*
X107936064Y-81689580D01*
X107936064Y-81689580D02*
X107888445Y-81737200D01*
X107888445Y-81737200D02*
X107793207Y-81784819D01*
X107793207Y-81784819D02*
X107555112Y-81784819D01*
X107555112Y-81784819D02*
X107459874Y-81737200D01*
X107459874Y-81737200D02*
X107412255Y-81689580D01*
X108602731Y-80784819D02*
X108697969Y-80784819D01*
X108697969Y-80784819D02*
X108793207Y-80832438D01*
X108793207Y-80832438D02*
X108840826Y-80880057D01*
X108840826Y-80880057D02*
X108888445Y-80975295D01*
X108888445Y-80975295D02*
X108936064Y-81165771D01*
X108936064Y-81165771D02*
X108936064Y-81403866D01*
X108936064Y-81403866D02*
X108888445Y-81594342D01*
X108888445Y-81594342D02*
X108840826Y-81689580D01*
X108840826Y-81689580D02*
X108793207Y-81737200D01*
X108793207Y-81737200D02*
X108697969Y-81784819D01*
X108697969Y-81784819D02*
X108602731Y-81784819D01*
X108602731Y-81784819D02*
X108507493Y-81737200D01*
X108507493Y-81737200D02*
X108459874Y-81689580D01*
X108459874Y-81689580D02*
X108412255Y-81594342D01*
X108412255Y-81594342D02*
X108364636Y-81403866D01*
X108364636Y-81403866D02*
X108364636Y-81165771D01*
X108364636Y-81165771D02*
X108412255Y-80975295D01*
X108412255Y-80975295D02*
X108459874Y-80880057D01*
X108459874Y-80880057D02*
X108507493Y-80832438D01*
X108507493Y-80832438D02*
X108602731Y-80784819D01*
X109317017Y-80880057D02*
X109364636Y-80832438D01*
X109364636Y-80832438D02*
X109459874Y-80784819D01*
X109459874Y-80784819D02*
X109697969Y-80784819D01*
X109697969Y-80784819D02*
X109793207Y-80832438D01*
X109793207Y-80832438D02*
X109840826Y-80880057D01*
X109840826Y-80880057D02*
X109888445Y-80975295D01*
X109888445Y-80975295D02*
X109888445Y-81070533D01*
X109888445Y-81070533D02*
X109840826Y-81213390D01*
X109840826Y-81213390D02*
X109269398Y-81784819D01*
X109269398Y-81784819D02*
X109888445Y-81784819D01*
D11*
X102383784Y-71931341D02*
X102955212Y-71931341D01*
X102669498Y-72931341D02*
X102669498Y-71931341D01*
X103193308Y-71931341D02*
X103859974Y-72931341D01*
X103859974Y-71931341D02*
X103193308Y-72931341D01*
X116512282Y-74302619D02*
X116512282Y-75016904D01*
X116512282Y-75016904D02*
X116464663Y-75159761D01*
X116464663Y-75159761D02*
X116369425Y-75255000D01*
X116369425Y-75255000D02*
X116226568Y-75302619D01*
X116226568Y-75302619D02*
X116131330Y-75302619D01*
X117464663Y-75302619D02*
X116988473Y-75302619D01*
X116988473Y-75302619D02*
X116988473Y-74302619D01*
X118369425Y-75207380D02*
X118321806Y-75255000D01*
X118321806Y-75255000D02*
X118178949Y-75302619D01*
X118178949Y-75302619D02*
X118083711Y-75302619D01*
X118083711Y-75302619D02*
X117940854Y-75255000D01*
X117940854Y-75255000D02*
X117845616Y-75159761D01*
X117845616Y-75159761D02*
X117797997Y-75064523D01*
X117797997Y-75064523D02*
X117750378Y-74874047D01*
X117750378Y-74874047D02*
X117750378Y-74731190D01*
X117750378Y-74731190D02*
X117797997Y-74540714D01*
X117797997Y-74540714D02*
X117845616Y-74445476D01*
X117845616Y-74445476D02*
X117940854Y-74350238D01*
X117940854Y-74350238D02*
X118083711Y-74302619D01*
X118083711Y-74302619D02*
X118178949Y-74302619D01*
X118178949Y-74302619D02*
X118321806Y-74350238D01*
X118321806Y-74350238D02*
X118369425Y-74397857D01*
X119083711Y-74302619D02*
X119083711Y-75016904D01*
X119083711Y-75016904D02*
X119036092Y-75159761D01*
X119036092Y-75159761D02*
X118940854Y-75255000D01*
X118940854Y-75255000D02*
X118797997Y-75302619D01*
X118797997Y-75302619D02*
X118702759Y-75302619D01*
X120036092Y-75302619D02*
X119559902Y-75302619D01*
X119559902Y-75302619D02*
X119559902Y-74302619D01*
X120940854Y-75207380D02*
X120893235Y-75255000D01*
X120893235Y-75255000D02*
X120750378Y-75302619D01*
X120750378Y-75302619D02*
X120655140Y-75302619D01*
X120655140Y-75302619D02*
X120512283Y-75255000D01*
X120512283Y-75255000D02*
X120417045Y-75159761D01*
X120417045Y-75159761D02*
X120369426Y-75064523D01*
X120369426Y-75064523D02*
X120321807Y-74874047D01*
X120321807Y-74874047D02*
X120321807Y-74731190D01*
X120321807Y-74731190D02*
X120369426Y-74540714D01*
X120369426Y-74540714D02*
X120417045Y-74445476D01*
X120417045Y-74445476D02*
X120512283Y-74350238D01*
X120512283Y-74350238D02*
X120655140Y-74302619D01*
X120655140Y-74302619D02*
X120750378Y-74302619D01*
X120750378Y-74302619D02*
X120893235Y-74350238D01*
X120893235Y-74350238D02*
X120940854Y-74397857D01*
X121655140Y-74302619D02*
X121655140Y-75016904D01*
X121655140Y-75016904D02*
X121607521Y-75159761D01*
X121607521Y-75159761D02*
X121512283Y-75255000D01*
X121512283Y-75255000D02*
X121369426Y-75302619D01*
X121369426Y-75302619D02*
X121274188Y-75302619D01*
X122607521Y-75302619D02*
X122131331Y-75302619D01*
X122131331Y-75302619D02*
X122131331Y-74302619D01*
X123512283Y-75207380D02*
X123464664Y-75255000D01*
X123464664Y-75255000D02*
X123321807Y-75302619D01*
X123321807Y-75302619D02*
X123226569Y-75302619D01*
X123226569Y-75302619D02*
X123083712Y-75255000D01*
X123083712Y-75255000D02*
X122988474Y-75159761D01*
X122988474Y-75159761D02*
X122940855Y-75064523D01*
X122940855Y-75064523D02*
X122893236Y-74874047D01*
X122893236Y-74874047D02*
X122893236Y-74731190D01*
X122893236Y-74731190D02*
X122940855Y-74540714D01*
X122940855Y-74540714D02*
X122988474Y-74445476D01*
X122988474Y-74445476D02*
X123083712Y-74350238D01*
X123083712Y-74350238D02*
X123226569Y-74302619D01*
X123226569Y-74302619D02*
X123321807Y-74302619D01*
X123321807Y-74302619D02*
X123464664Y-74350238D01*
X123464664Y-74350238D02*
X123512283Y-74397857D01*
X124226569Y-74302619D02*
X124226569Y-75016904D01*
X124226569Y-75016904D02*
X124178950Y-75159761D01*
X124178950Y-75159761D02*
X124083712Y-75255000D01*
X124083712Y-75255000D02*
X123940855Y-75302619D01*
X123940855Y-75302619D02*
X123845617Y-75302619D01*
X125178950Y-75302619D02*
X124702760Y-75302619D01*
X124702760Y-75302619D02*
X124702760Y-74302619D01*
X126083712Y-75207380D02*
X126036093Y-75255000D01*
X126036093Y-75255000D02*
X125893236Y-75302619D01*
X125893236Y-75302619D02*
X125797998Y-75302619D01*
X125797998Y-75302619D02*
X125655141Y-75255000D01*
X125655141Y-75255000D02*
X125559903Y-75159761D01*
X125559903Y-75159761D02*
X125512284Y-75064523D01*
X125512284Y-75064523D02*
X125464665Y-74874047D01*
X125464665Y-74874047D02*
X125464665Y-74731190D01*
X125464665Y-74731190D02*
X125512284Y-74540714D01*
X125512284Y-74540714D02*
X125559903Y-74445476D01*
X125559903Y-74445476D02*
X125655141Y-74350238D01*
X125655141Y-74350238D02*
X125797998Y-74302619D01*
X125797998Y-74302619D02*
X125893236Y-74302619D01*
X125893236Y-74302619D02*
X126036093Y-74350238D01*
X126036093Y-74350238D02*
X126083712Y-74397857D01*
X102917963Y-71346403D02*
X102584630Y-70870212D01*
X102346535Y-71346403D02*
X102346535Y-70346403D01*
X102346535Y-70346403D02*
X102727487Y-70346403D01*
X102727487Y-70346403D02*
X102822725Y-70394022D01*
X102822725Y-70394022D02*
X102870344Y-70441641D01*
X102870344Y-70441641D02*
X102917963Y-70536879D01*
X102917963Y-70536879D02*
X102917963Y-70679736D01*
X102917963Y-70679736D02*
X102870344Y-70774974D01*
X102870344Y-70774974D02*
X102822725Y-70822593D01*
X102822725Y-70822593D02*
X102727487Y-70870212D01*
X102727487Y-70870212D02*
X102346535Y-70870212D01*
X103251297Y-70346403D02*
X103917963Y-71346403D01*
X103917963Y-70346403D02*
X103251297Y-71346403D01*
D10*
X113628095Y-51279819D02*
X113628095Y-52089342D01*
X113628095Y-52089342D02*
X113675714Y-52184580D01*
X113675714Y-52184580D02*
X113723333Y-52232200D01*
X113723333Y-52232200D02*
X113818571Y-52279819D01*
X113818571Y-52279819D02*
X114009047Y-52279819D01*
X114009047Y-52279819D02*
X114104285Y-52232200D01*
X114104285Y-52232200D02*
X114151904Y-52184580D01*
X114151904Y-52184580D02*
X114199523Y-52089342D01*
X114199523Y-52089342D02*
X114199523Y-51279819D01*
X115104285Y-51613152D02*
X115104285Y-52279819D01*
X114866190Y-51232200D02*
X114628095Y-51946485D01*
X114628095Y-51946485D02*
X115247142Y-51946485D01*
D12*
%TO.C,C14*%
X109205000Y-62446267D02*
X109205000Y-62153733D01*
X110225000Y-62446267D02*
X110225000Y-62153733D01*
%TO.C,C11*%
X142366665Y-68993749D02*
X142598335Y-68993749D01*
X142366665Y-69713749D02*
X142598335Y-69713749D01*
%TO.C,Y1*%
X147797932Y-75483223D02*
X145818033Y-73503324D01*
X145818033Y-73503324D02*
X143484580Y-75836777D01*
%TO.C,C8*%
X110275000Y-67126233D02*
X110275000Y-67418767D01*
X109255000Y-67126233D02*
X109255000Y-67418767D01*
%TO.C,C7*%
X108475000Y-67126233D02*
X108475000Y-67418767D01*
X107455000Y-67126233D02*
X107455000Y-67418767D01*
%TO.C,C10*%
X139966665Y-64366250D02*
X140198335Y-64366250D01*
X139966665Y-65086250D02*
X140198335Y-65086250D01*
%TO.C,F1*%
X96593733Y-65850000D02*
X96936267Y-65850000D01*
X96593733Y-66870000D02*
X96936267Y-66870000D01*
%TO.C,C6*%
X106875000Y-67126233D02*
X106875000Y-67418767D01*
X105855000Y-67126233D02*
X105855000Y-67418767D01*
%TO.C,C9*%
X139122500Y-66542085D02*
X139122500Y-66310415D01*
X139842500Y-66542085D02*
X139842500Y-66310415D01*
%TO.C,L4*%
X140322500Y-68826450D02*
X140322500Y-68626050D01*
X141042500Y-68826450D02*
X141042500Y-68626050D01*
%TO.C,C1*%
X134454999Y-77306267D02*
X134454999Y-77013733D01*
X135474999Y-77306267D02*
X135474999Y-77013733D01*
%TO.C,R6*%
X143245000Y-75689878D02*
X143245000Y-76025120D01*
X142485000Y-75689878D02*
X142485000Y-76025120D01*
%TO.C,C3*%
X135905000Y-76775835D02*
X135905000Y-76544165D01*
X136625000Y-76775835D02*
X136625000Y-76544165D01*
%TO.C,C4*%
X142605000Y-79375835D02*
X142605000Y-79144165D01*
X143325000Y-79375835D02*
X143325000Y-79144165D01*
D13*
%TO.C,U4*%
X111965000Y-53210000D02*
X129965000Y-53210000D01*
X111965000Y-59930000D02*
X111965000Y-53210000D01*
X111965000Y-77980000D02*
X111965000Y-78710000D01*
X111965000Y-78710000D02*
X113210000Y-78710000D01*
X129965000Y-53210000D02*
X129965000Y-59930000D01*
X129965000Y-77980000D02*
X129965000Y-78710000D01*
X129965000Y-78710000D02*
X128720000Y-78710000D01*
D14*
X110865000Y-60700000D02*
G75*
G03*
X110865000Y-60700000I-100000J0D01*
G01*
D12*
%TO.C,L3*%
X139982300Y-70066250D02*
X140182700Y-70066250D01*
X139982300Y-70786250D02*
X140182700Y-70786250D01*
%TO.C,C16*%
X144328534Y-73487349D02*
X144492349Y-73323534D01*
X144837651Y-73996466D02*
X145001466Y-73832651D01*
%TO.C,L1*%
X108693733Y-64262500D02*
X109036267Y-64262500D01*
X108693733Y-65282500D02*
X109036267Y-65282500D01*
%TO.C,C17*%
X145037651Y-77723535D02*
X145201466Y-77887350D01*
X144528534Y-78232652D02*
X144692349Y-78396467D01*
%TO.C,R2*%
X109669724Y-72882500D02*
X109160276Y-72882500D01*
X109669724Y-71837500D02*
X109160276Y-71837500D01*
%TO.C,C12*%
X142366665Y-67793750D02*
X142598335Y-67793750D01*
X142366665Y-68513750D02*
X142598335Y-68513750D01*
%TO.C,C15*%
X136625000Y-78844165D02*
X136625000Y-79075835D01*
X135905000Y-78844165D02*
X135905000Y-79075835D01*
%TO.C,U1*%
X101970000Y-68920000D02*
X103770000Y-68920000D01*
X103770000Y-65700000D02*
X101320000Y-65700000D01*
%TO.C,R5*%
X135497379Y-74580000D02*
X135832621Y-74580000D01*
X135497379Y-75340000D02*
X135832621Y-75340000D01*
%TO.C,R4*%
X92810276Y-65837500D02*
X93319724Y-65837500D01*
X92810276Y-66882500D02*
X93319724Y-66882500D01*
%TO.C,C2*%
X135780835Y-74220000D02*
X135549165Y-74220000D01*
X135780835Y-73500000D02*
X135549165Y-73500000D01*
%TO.C,J1*%
X89975000Y-68190000D02*
X91775000Y-68190000D01*
X87875000Y-68190000D02*
X86725000Y-68190000D01*
X89975000Y-77530000D02*
X91775000Y-77530000D01*
X87875000Y-77530000D02*
X86725000Y-77530000D01*
%TO.C,U3*%
X97865000Y-73970000D02*
X99665000Y-73970000D01*
X99665000Y-70750000D02*
X96715000Y-70750000D01*
%TO.C,L2*%
X139122500Y-68826450D02*
X139122500Y-68626050D01*
X139842500Y-68826450D02*
X139842500Y-68626050D01*
%TO.C,C13*%
X107505000Y-62446267D02*
X107505000Y-62153733D01*
X108525000Y-62446267D02*
X108525000Y-62153733D01*
%TO.C,J2*%
X141400000Y-63098750D02*
X140290000Y-63098750D01*
X141400000Y-59388750D02*
X140290000Y-59388750D01*
X139700000Y-64148750D02*
X139450000Y-63648750D01*
X139450000Y-63648750D02*
X139200000Y-64148750D01*
X139200000Y-64148750D02*
X139700000Y-64148750D01*
X138610000Y-63098750D02*
X137500000Y-63098750D01*
X138610000Y-59388750D02*
X137500000Y-59388750D01*
%TO.C,U2*%
X141637500Y-79170000D02*
X140912500Y-79170000D01*
X137417500Y-78445000D02*
X137417500Y-79170000D01*
X141637500Y-78445000D02*
X141637500Y-79170000D01*
X137417500Y-75675000D02*
X137417500Y-74950000D01*
X141637500Y-75675000D02*
X141637500Y-74950000D01*
X137417500Y-74950000D02*
X138142500Y-74950000D01*
X141637500Y-74950000D02*
X140912500Y-74950000D01*
%TO.C,C5*%
X99775000Y-67126233D02*
X99775000Y-67418767D01*
X98755000Y-67126233D02*
X98755000Y-67418767D01*
%TO.C,R3*%
X92810276Y-78837500D02*
X93319724Y-78837500D01*
X92810276Y-79882500D02*
X93319724Y-79882500D01*
%TO.C,R1*%
X109619724Y-71282500D02*
X109110276Y-71282500D01*
X109619724Y-70237500D02*
X109110276Y-70237500D01*
%TD*%
M02*
