%TF.GenerationSoftware,KiCad,Pcbnew,7.0.7*%
%TF.CreationDate,2023-10-10T08:15:51+02:00*%
%TF.ProjectId,ESPxRF,45535078-5246-42e6-9b69-6361645f7063,rev?*%
%TF.SameCoordinates,Original*%
%TF.FileFunction,Copper,L2,Inr*%
%TF.FilePolarity,Positive*%
%FSLAX46Y46*%
G04 Gerber Fmt 4.6, Leading zero omitted, Abs format (unit mm)*
G04 Created by KiCad (PCBNEW 7.0.7) date 2023-10-10 08:15:51*
%MOMM*%
%LPD*%
G01*
G04 APERTURE LIST*
%TA.AperFunction,ComponentPad*%
%ADD10C,0.600000*%
%TD*%
%TA.AperFunction,ComponentPad*%
%ADD11O,2.100000X1.000000*%
%TD*%
%TA.AperFunction,ComponentPad*%
%ADD12O,1.800000X1.000000*%
%TD*%
%TA.AperFunction,ViaPad*%
%ADD13C,0.800000*%
%TD*%
%TA.AperFunction,ViaPad*%
%ADD14C,0.600000*%
%TD*%
G04 APERTURE END LIST*
D10*
%TO.N,N/C*%
%TO.C,U3*%
X119465000Y-67720000D03*
X118065000Y-67720000D03*
X120865000Y-67720000D03*
X118065000Y-69120000D03*
X119465000Y-69120000D03*
X120865000Y-69120000D03*
X118765000Y-67020000D03*
X120165000Y-67020000D03*
X118765000Y-68420000D03*
X120165000Y-68420000D03*
X118765000Y-69820000D03*
X120165000Y-69820000D03*
%TD*%
D11*
%TO.N,unconnected-(J1-SHIELD-PadS1)*%
%TO.C,J1*%
X93080000Y-68540000D03*
D12*
X88900000Y-68540000D03*
D11*
X93080000Y-77180000D03*
D12*
X88900000Y-77180000D03*
%TD*%
D13*
%TO.N,GND*%
X122650000Y-65150000D03*
D14*
%TO.N,CSN*%
X125150000Y-80150000D03*
X113800000Y-69650000D03*
%TO.N,+3V3*%
X127800000Y-74700000D03*
X132500000Y-74900000D03*
D13*
X133665000Y-78060001D03*
X142965000Y-80960000D03*
%TO.N,GND*%
X98552000Y-76200000D03*
X133800000Y-65000000D03*
X140696250Y-65912500D03*
X94996000Y-69596000D03*
X99822000Y-76200000D03*
X143096250Y-67112500D03*
X133800000Y-69000000D03*
D14*
X98765000Y-73410000D03*
D13*
X133800000Y-63000000D03*
X131800000Y-61000000D03*
X138465000Y-73860000D03*
D14*
X133965001Y-74960000D03*
D13*
X133965000Y-73860000D03*
X114046000Y-76454000D03*
X106934000Y-64770000D03*
X125150000Y-62650000D03*
X119126000Y-76454000D03*
X144100000Y-61426250D03*
X147200000Y-69200000D03*
X127650000Y-72650000D03*
D14*
X140365000Y-77060000D03*
D13*
X135100000Y-79500000D03*
X133800000Y-67000000D03*
X125100000Y-70150000D03*
X118110000Y-81788000D03*
X114046000Y-73914000D03*
X94742000Y-81534000D03*
X131800000Y-65000000D03*
X88900000Y-74500000D03*
X135800000Y-65000000D03*
X137800000Y-69000000D03*
X114300000Y-80518000D03*
X111760000Y-80518000D03*
X101092000Y-74930000D03*
X95650000Y-76900000D03*
X144272000Y-72390000D03*
X116586000Y-73914000D03*
X115316000Y-72644000D03*
X99822000Y-74930000D03*
X116840000Y-81788000D03*
X137800000Y-67000000D03*
X102870000Y-67310000D03*
X137800000Y-65000000D03*
X89662000Y-81534000D03*
X135800000Y-67000000D03*
X133800000Y-71000000D03*
X88900000Y-66294000D03*
X88392000Y-81534000D03*
D14*
X139527500Y-77060000D03*
D13*
X131800000Y-67000000D03*
X115570000Y-80518000D03*
X113030000Y-80518000D03*
X102362000Y-76200000D03*
X89662000Y-80264000D03*
X120915000Y-60760000D03*
X106365000Y-69342000D03*
X89662000Y-78994000D03*
X108458000Y-61976000D03*
X135000000Y-61426250D03*
X122650000Y-62650000D03*
X122650000Y-67650000D03*
X104394000Y-69596000D03*
X145200000Y-71200000D03*
X137565000Y-79060000D03*
X125100000Y-65150000D03*
D14*
X138765000Y-77060000D03*
D13*
X133665001Y-76260000D03*
X124815000Y-60760000D03*
X114300000Y-81788000D03*
X145200000Y-67200000D03*
X90932000Y-81534000D03*
X99265000Y-69472500D03*
X127650000Y-67650000D03*
X97282000Y-74930000D03*
X116840000Y-80518000D03*
X111760000Y-81788000D03*
X92202000Y-81534000D03*
X101092000Y-76200000D03*
X107965000Y-69342000D03*
X133800000Y-61000000D03*
X147200000Y-65200000D03*
X115570000Y-81788000D03*
X147200000Y-67200000D03*
X127650000Y-65150000D03*
X146050000Y-79248000D03*
X127650000Y-70150000D03*
X122650000Y-70150000D03*
X147665000Y-76460000D03*
X122650000Y-72650000D03*
X125150000Y-72650000D03*
X117856000Y-75184000D03*
X147200000Y-61200000D03*
X147665000Y-74660001D03*
X131800000Y-63000000D03*
X135800000Y-71000000D03*
X147200000Y-63200000D03*
X115316000Y-75184000D03*
X125150000Y-67650000D03*
X113030000Y-81788000D03*
X131800000Y-69000000D03*
X88392000Y-78994000D03*
X97282000Y-76200000D03*
X128215000Y-60760000D03*
X117215000Y-60760000D03*
X88900000Y-71200000D03*
X98552000Y-74930000D03*
X131800000Y-71000000D03*
X135800000Y-69000000D03*
X114046000Y-71374000D03*
X88900000Y-72850000D03*
X145200000Y-65200000D03*
X145200000Y-63200000D03*
X102362000Y-74930000D03*
X93472000Y-81534000D03*
X137800000Y-71000000D03*
X147200000Y-71200000D03*
X118110000Y-80518000D03*
X116586000Y-76454000D03*
X145200000Y-61200000D03*
X88392000Y-80264000D03*
X145200000Y-69200000D03*
X143065000Y-77560000D03*
X143200000Y-65200000D03*
X127650000Y-62650000D03*
X113915000Y-60760000D03*
D14*
%TO.N,Net-(F1-Pad1)*%
X95665000Y-75260000D03*
X95665000Y-70460000D03*
%TD*%
%TA.AperFunction,Conductor*%
%TO.N,GND*%
G36*
X145951619Y-59250584D02*
G01*
X146083628Y-59257503D01*
X146267027Y-59267803D01*
X146273212Y-59268465D01*
X146425647Y-59292608D01*
X146588194Y-59320226D01*
X146593811Y-59321453D01*
X146746693Y-59362418D01*
X146839122Y-59389046D01*
X146901724Y-59407082D01*
X146906759Y-59408769D01*
X147056183Y-59466127D01*
X147204007Y-59527358D01*
X147208412Y-59529388D01*
X147274180Y-59562899D01*
X147351921Y-59602511D01*
X147427428Y-59644241D01*
X147491480Y-59679641D01*
X147495215Y-59681882D01*
X147569487Y-59730115D01*
X147630872Y-59769980D01*
X147680894Y-59805472D01*
X147760764Y-59862142D01*
X147763886Y-59864510D01*
X147888748Y-59965621D01*
X147891034Y-59967567D01*
X148008721Y-60072738D01*
X148011248Y-60075128D01*
X148124870Y-60188750D01*
X148127260Y-60191277D01*
X148232431Y-60308964D01*
X148234385Y-60311260D01*
X148335480Y-60436102D01*
X148337862Y-60439243D01*
X148430019Y-60569127D01*
X148483758Y-60651875D01*
X148518106Y-60704767D01*
X148520364Y-60708531D01*
X148597488Y-60848078D01*
X148670604Y-60991575D01*
X148672643Y-60995997D01*
X148733877Y-61143829D01*
X148791221Y-61293217D01*
X148792916Y-61298273D01*
X148837579Y-61453297D01*
X148878541Y-61606171D01*
X148879778Y-61611835D01*
X148907394Y-61774369D01*
X148931530Y-61926758D01*
X148932196Y-61932985D01*
X148942509Y-62116617D01*
X148949415Y-62248377D01*
X148949500Y-62251623D01*
X148949500Y-78932902D01*
X148944926Y-78948479D01*
X148949201Y-78991888D01*
X148949500Y-78997968D01*
X148949500Y-79087536D01*
X148960628Y-79150646D01*
X148959311Y-79162448D01*
X148966343Y-79185629D01*
X148968072Y-79192866D01*
X148979899Y-79259940D01*
X149008162Y-79337592D01*
X149008991Y-79350639D01*
X149017128Y-79365862D01*
X149024292Y-79381905D01*
X149039776Y-79424448D01*
X149039777Y-79424449D01*
X149088578Y-79508974D01*
X149092055Y-79523309D01*
X149101792Y-79535173D01*
X149113326Y-79551838D01*
X149127307Y-79576053D01*
X149130414Y-79580491D01*
X149130038Y-79580754D01*
X149139371Y-79594560D01*
X149141254Y-79598082D01*
X149159702Y-79614661D01*
X149198914Y-79661393D01*
X149205484Y-79676406D01*
X149215928Y-79684977D01*
X149232254Y-79701126D01*
X149239837Y-79710163D01*
X149248872Y-79717744D01*
X149265020Y-79734070D01*
X149269146Y-79739098D01*
X149288606Y-79751085D01*
X149335337Y-79790297D01*
X149345234Y-79805172D01*
X149355438Y-79810627D01*
X149369245Y-79819961D01*
X149369509Y-79819586D01*
X149373945Y-79822692D01*
X149398163Y-79836675D01*
X149414824Y-79848206D01*
X149421770Y-79853906D01*
X149441025Y-79861421D01*
X149525547Y-79910221D01*
X149525551Y-79910222D01*
X149525555Y-79910225D01*
X149568103Y-79925711D01*
X149584143Y-79932874D01*
X149594334Y-79938321D01*
X149612407Y-79941836D01*
X149690062Y-79970101D01*
X149757145Y-79981929D01*
X149764379Y-79983657D01*
X149782543Y-79989167D01*
X149799350Y-79989370D01*
X149862468Y-80000500D01*
X149948465Y-80000500D01*
X149951497Y-80000574D01*
X149954496Y-80000720D01*
X149958648Y-80000924D01*
X149961670Y-80001147D01*
X150010120Y-80005919D01*
X150022858Y-80004079D01*
X150196805Y-80012624D01*
X150338979Y-80019610D01*
X150345026Y-80020204D01*
X150634654Y-80063166D01*
X150730466Y-80077686D01*
X150736205Y-80078837D01*
X150940111Y-80129913D01*
X150984987Y-80141154D01*
X151115082Y-80174464D01*
X151120594Y-80176152D01*
X151347188Y-80257229D01*
X151488221Y-80308857D01*
X151493399Y-80311024D01*
X151703120Y-80410215D01*
X151814968Y-80464408D01*
X151846177Y-80479530D01*
X151851018Y-80482146D01*
X152045195Y-80598531D01*
X152090346Y-80626304D01*
X152185473Y-80684819D01*
X152189925Y-80687830D01*
X152368689Y-80820410D01*
X152502743Y-80922681D01*
X152506764Y-80926026D01*
X152669673Y-81073677D01*
X152794892Y-81190794D01*
X152798451Y-81194409D01*
X152944758Y-81355835D01*
X153059004Y-81486473D01*
X153062133Y-81490356D01*
X153190949Y-81664044D01*
X153292551Y-81806878D01*
X153295210Y-81810943D01*
X153405718Y-81995316D01*
X153493197Y-82148803D01*
X153495380Y-82152996D01*
X153586862Y-82346419D01*
X153658990Y-82508906D01*
X153660698Y-82513175D01*
X153732508Y-82713870D01*
X153788292Y-82883620D01*
X153789533Y-82887913D01*
X153841170Y-83094061D01*
X153879849Y-83269303D01*
X153880635Y-83273570D01*
X153911740Y-83483256D01*
X153932755Y-83662104D01*
X153933104Y-83666298D01*
X153943487Y-83877611D01*
X153946504Y-84058219D01*
X153946438Y-84062298D01*
X153936076Y-84273244D01*
X153920963Y-84453708D01*
X153920508Y-84457631D01*
X153889558Y-84666282D01*
X153856383Y-84844719D01*
X153855569Y-84848451D01*
X153804373Y-85052843D01*
X153753408Y-85227392D01*
X153752268Y-85230903D01*
X153681340Y-85429134D01*
X153613064Y-85597942D01*
X153611634Y-85601204D01*
X153521653Y-85791454D01*
X153436720Y-85952776D01*
X153435037Y-85955767D01*
X153327598Y-86135016D01*
X153326114Y-86137371D01*
X153226137Y-86288362D01*
X153224241Y-86291066D01*
X153099780Y-86458882D01*
X153097989Y-86461182D01*
X152983365Y-86601446D01*
X152981295Y-86603851D01*
X152841037Y-86758603D01*
X152838938Y-86760807D01*
X152710807Y-86888938D01*
X152708603Y-86891037D01*
X152553851Y-87031295D01*
X152551446Y-87033365D01*
X152411182Y-87147989D01*
X152408882Y-87149780D01*
X152241066Y-87274241D01*
X152238362Y-87276137D01*
X152087371Y-87376114D01*
X152085016Y-87377598D01*
X151905767Y-87485037D01*
X151902776Y-87486720D01*
X151741454Y-87571653D01*
X151551204Y-87661634D01*
X151547942Y-87663064D01*
X151379134Y-87731340D01*
X151180903Y-87802268D01*
X151177392Y-87803408D01*
X151002843Y-87854373D01*
X150798451Y-87905569D01*
X150794719Y-87906383D01*
X150616282Y-87939558D01*
X150407631Y-87970508D01*
X150403711Y-87970962D01*
X150341158Y-87976201D01*
X150223244Y-87986076D01*
X150012298Y-87996438D01*
X150008219Y-87996504D01*
X149827611Y-87993487D01*
X149616298Y-87983104D01*
X149612104Y-87982755D01*
X149433256Y-87961740D01*
X149223570Y-87930635D01*
X149219303Y-87929849D01*
X149044061Y-87891170D01*
X148837913Y-87839533D01*
X148833620Y-87838292D01*
X148663870Y-87782508D01*
X148463175Y-87710698D01*
X148458906Y-87708990D01*
X148296419Y-87636862D01*
X148102996Y-87545380D01*
X148098803Y-87543197D01*
X147945316Y-87455718D01*
X147760943Y-87345210D01*
X147756878Y-87342551D01*
X147614044Y-87240949D01*
X147440356Y-87112133D01*
X147436479Y-87109009D01*
X147305835Y-86994758D01*
X147144409Y-86848451D01*
X147140794Y-86844892D01*
X147023677Y-86719673D01*
X146876026Y-86556764D01*
X146872681Y-86552743D01*
X146770410Y-86418689D01*
X146637830Y-86239925D01*
X146634819Y-86235473D01*
X146573026Y-86135016D01*
X146548531Y-86095195D01*
X146432146Y-85901018D01*
X146429530Y-85896177D01*
X146394736Y-85824367D01*
X146360215Y-85753120D01*
X146261024Y-85543399D01*
X146258857Y-85538221D01*
X146207229Y-85397188D01*
X146126152Y-85170594D01*
X146124464Y-85165082D01*
X146091154Y-85034987D01*
X146040599Y-84833161D01*
X146028837Y-84786205D01*
X146027686Y-84780466D01*
X146013166Y-84684654D01*
X145970204Y-84395026D01*
X145969610Y-84388979D01*
X145955995Y-84111853D01*
X145954079Y-84072859D01*
X145956276Y-84063744D01*
X145951147Y-84011669D01*
X145950924Y-84008645D01*
X145950744Y-84004983D01*
X145950574Y-84001495D01*
X145950538Y-84000000D01*
X147944390Y-84000000D01*
X147951745Y-84102844D01*
X147952390Y-84111853D01*
X147952548Y-84116277D01*
X147952548Y-84142861D01*
X147956331Y-84169172D01*
X147956804Y-84173574D01*
X147964804Y-84285428D01*
X147964805Y-84285435D01*
X147988637Y-84394988D01*
X147989423Y-84399346D01*
X147993206Y-84425666D01*
X148000698Y-84451181D01*
X148001793Y-84455471D01*
X148025630Y-84565046D01*
X148025631Y-84565048D01*
X148064819Y-84670118D01*
X148066217Y-84674317D01*
X148073705Y-84699816D01*
X148084746Y-84723994D01*
X148086440Y-84728084D01*
X148125632Y-84833159D01*
X148125635Y-84833166D01*
X148179363Y-84931561D01*
X148181345Y-84935521D01*
X148192394Y-84959717D01*
X148206772Y-84982088D01*
X148209031Y-84985895D01*
X148245589Y-85052843D01*
X148262774Y-85084315D01*
X148323235Y-85165082D01*
X148329976Y-85174086D01*
X148332498Y-85177719D01*
X148346873Y-85200086D01*
X148357493Y-85212343D01*
X148364284Y-85220180D01*
X148367055Y-85223619D01*
X148434261Y-85313395D01*
X148513552Y-85392686D01*
X148516562Y-85395919D01*
X148533978Y-85416018D01*
X148554078Y-85433435D01*
X148557304Y-85436438D01*
X148636605Y-85515739D01*
X148726404Y-85582961D01*
X148729815Y-85585711D01*
X148749911Y-85603126D01*
X148767905Y-85614689D01*
X148772266Y-85617492D01*
X148772276Y-85617498D01*
X148775914Y-85620024D01*
X148865682Y-85687224D01*
X148865690Y-85687229D01*
X148964102Y-85740966D01*
X148967910Y-85743225D01*
X148990286Y-85757606D01*
X149014479Y-85768654D01*
X149018431Y-85770632D01*
X149116839Y-85824367D01*
X149221914Y-85863558D01*
X149225993Y-85865247D01*
X149250179Y-85876293D01*
X149275691Y-85883784D01*
X149279872Y-85885175D01*
X149384954Y-85924369D01*
X149494554Y-85948211D01*
X149498788Y-85949291D01*
X149524326Y-85956790D01*
X149524331Y-85956790D01*
X149524339Y-85956793D01*
X149550655Y-85960576D01*
X149554982Y-85961356D01*
X149664572Y-85985196D01*
X149776450Y-85993197D01*
X149780795Y-85993664D01*
X149807139Y-85997452D01*
X149807146Y-85997452D01*
X149833721Y-85997452D01*
X149838143Y-85997609D01*
X149887344Y-86001128D01*
X149949999Y-86005610D01*
X149950000Y-86005610D01*
X149950001Y-86005610D01*
X150012655Y-86001128D01*
X150061856Y-85997609D01*
X150066279Y-85997452D01*
X150092854Y-85997452D01*
X150092861Y-85997452D01*
X150119219Y-85993662D01*
X150123516Y-85993200D01*
X150235428Y-85985196D01*
X150345012Y-85961357D01*
X150349345Y-85960576D01*
X150375671Y-85956791D01*
X150401189Y-85949298D01*
X150405438Y-85948212D01*
X150515046Y-85924369D01*
X150620124Y-85885177D01*
X150624291Y-85883789D01*
X150649821Y-85876293D01*
X150674020Y-85865241D01*
X150678056Y-85863569D01*
X150783161Y-85824367D01*
X150881568Y-85770632D01*
X150885514Y-85768657D01*
X150909708Y-85757608D01*
X150909716Y-85757602D01*
X150909722Y-85757600D01*
X150932104Y-85743215D01*
X150935872Y-85740979D01*
X151034315Y-85687226D01*
X151124120Y-85619998D01*
X151127697Y-85617515D01*
X151150086Y-85603127D01*
X151170208Y-85585690D01*
X151173591Y-85582965D01*
X151263395Y-85515739D01*
X151342689Y-85436444D01*
X151345913Y-85433442D01*
X151366020Y-85416020D01*
X151383445Y-85395909D01*
X151386433Y-85392700D01*
X151465739Y-85313395D01*
X151532965Y-85223591D01*
X151535690Y-85220208D01*
X151553127Y-85200086D01*
X151567507Y-85177709D01*
X151570008Y-85174107D01*
X151637226Y-85084315D01*
X151690979Y-84985872D01*
X151693215Y-84982104D01*
X151707600Y-84959722D01*
X151707602Y-84959716D01*
X151707608Y-84959708D01*
X151718657Y-84935514D01*
X151720636Y-84931561D01*
X151774367Y-84833161D01*
X151813569Y-84728056D01*
X151815241Y-84724020D01*
X151826293Y-84699821D01*
X151833789Y-84674291D01*
X151835177Y-84670124D01*
X151838758Y-84660522D01*
X151874369Y-84565046D01*
X151898212Y-84455438D01*
X151899298Y-84451189D01*
X151906791Y-84425671D01*
X151910576Y-84399345D01*
X151911357Y-84395012D01*
X151935196Y-84285428D01*
X151943198Y-84173540D01*
X151943666Y-84169192D01*
X151947452Y-84142861D01*
X151948107Y-84106105D01*
X151948250Y-84102901D01*
X151955610Y-84000000D01*
X151948250Y-83897102D01*
X151948107Y-83893890D01*
X151947452Y-83857139D01*
X151943663Y-83830789D01*
X151943197Y-83826450D01*
X151935196Y-83714572D01*
X151911356Y-83604982D01*
X151910576Y-83600655D01*
X151906793Y-83574339D01*
X151906790Y-83574331D01*
X151906790Y-83574326D01*
X151899291Y-83548788D01*
X151898211Y-83544554D01*
X151874369Y-83434954D01*
X151835175Y-83329872D01*
X151833782Y-83325684D01*
X151826293Y-83300179D01*
X151815246Y-83275989D01*
X151813558Y-83271914D01*
X151799543Y-83234339D01*
X151774367Y-83166839D01*
X151720632Y-83068431D01*
X151718654Y-83064479D01*
X151707606Y-83040286D01*
X151693225Y-83017910D01*
X151690966Y-83014102D01*
X151637229Y-82915690D01*
X151637224Y-82915682D01*
X151570024Y-82825914D01*
X151567498Y-82822276D01*
X151553126Y-82799911D01*
X151535711Y-82779815D01*
X151532961Y-82776404D01*
X151465739Y-82686605D01*
X151386438Y-82607304D01*
X151383435Y-82604078D01*
X151382484Y-82602981D01*
X151366020Y-82583980D01*
X151345921Y-82566564D01*
X151342681Y-82563547D01*
X151263398Y-82484264D01*
X151263396Y-82484262D01*
X151263395Y-82484261D01*
X151173619Y-82417055D01*
X151170180Y-82414284D01*
X151157188Y-82403027D01*
X151150086Y-82396873D01*
X151127719Y-82382498D01*
X151124086Y-82379976D01*
X151034318Y-82312776D01*
X151034316Y-82312775D01*
X151034315Y-82312774D01*
X151014129Y-82301751D01*
X150935895Y-82259031D01*
X150932088Y-82256772D01*
X150909717Y-82242394D01*
X150885521Y-82231345D01*
X150881561Y-82229363D01*
X150783166Y-82175635D01*
X150783159Y-82175632D01*
X150678084Y-82136440D01*
X150673994Y-82134746D01*
X150659072Y-82127931D01*
X150649821Y-82123707D01*
X150649819Y-82123706D01*
X150649816Y-82123705D01*
X150624317Y-82116217D01*
X150620118Y-82114819D01*
X150515048Y-82075631D01*
X150515046Y-82075630D01*
X150405471Y-82051793D01*
X150401180Y-82050698D01*
X150394402Y-82048708D01*
X150375669Y-82043207D01*
X150349346Y-82039423D01*
X150344988Y-82038637D01*
X150235435Y-82014805D01*
X150235428Y-82014804D01*
X150123574Y-82006804D01*
X150119177Y-82006331D01*
X150092861Y-82002548D01*
X150066279Y-82002548D01*
X150061856Y-82002390D01*
X150012655Y-81998871D01*
X149950001Y-81994390D01*
X149949999Y-81994390D01*
X149887344Y-81998871D01*
X149838143Y-82002390D01*
X149833721Y-82002548D01*
X149807137Y-82002548D01*
X149780826Y-82006331D01*
X149776424Y-82006804D01*
X149664571Y-82014804D01*
X149664561Y-82014805D01*
X149555013Y-82038636D01*
X149550657Y-82039422D01*
X149524325Y-82043207D01*
X149498819Y-82050698D01*
X149494528Y-82051793D01*
X149384953Y-82075630D01*
X149384947Y-82075632D01*
X149279883Y-82114819D01*
X149275684Y-82116216D01*
X149250177Y-82123706D01*
X149225989Y-82134753D01*
X149221901Y-82136446D01*
X149116844Y-82175630D01*
X149116831Y-82175636D01*
X149018436Y-82229363D01*
X149014478Y-82231344D01*
X148990291Y-82242389D01*
X148967909Y-82256773D01*
X148964102Y-82259033D01*
X148865688Y-82312771D01*
X148775903Y-82379981D01*
X148772271Y-82382503D01*
X148749911Y-82396874D01*
X148742810Y-82403027D01*
X148729823Y-82414280D01*
X148726377Y-82417057D01*
X148636619Y-82484249D01*
X148636604Y-82484262D01*
X148557310Y-82563553D01*
X148554071Y-82566569D01*
X148533979Y-82583979D01*
X148516569Y-82604071D01*
X148513553Y-82607310D01*
X148434262Y-82686604D01*
X148434249Y-82686619D01*
X148367059Y-82776375D01*
X148364285Y-82779817D01*
X148359762Y-82785038D01*
X148346866Y-82799920D01*
X148332505Y-82822267D01*
X148329982Y-82825902D01*
X148262771Y-82915688D01*
X148209033Y-83014102D01*
X148206773Y-83017909D01*
X148192389Y-83040291D01*
X148181344Y-83064478D01*
X148179363Y-83068436D01*
X148125636Y-83166831D01*
X148125630Y-83166844D01*
X148086446Y-83271901D01*
X148084753Y-83275989D01*
X148073706Y-83300177D01*
X148066216Y-83325684D01*
X148064819Y-83329883D01*
X148025632Y-83434947D01*
X148025630Y-83434953D01*
X148001793Y-83544528D01*
X148000698Y-83548819D01*
X147993207Y-83574325D01*
X147989422Y-83600657D01*
X147988636Y-83605013D01*
X147964805Y-83714561D01*
X147964804Y-83714571D01*
X147956804Y-83826424D01*
X147956331Y-83830826D01*
X147952548Y-83857136D01*
X147952548Y-83883721D01*
X147952390Y-83888143D01*
X147944390Y-84000000D01*
X145950538Y-84000000D01*
X145950500Y-83998464D01*
X145950500Y-83912472D01*
X145950500Y-83912468D01*
X145939371Y-83849352D01*
X145940687Y-83837552D01*
X145933657Y-83814379D01*
X145931928Y-83807140D01*
X145920101Y-83740062D01*
X145891837Y-83662408D01*
X145891007Y-83649359D01*
X145882874Y-83634143D01*
X145875709Y-83618098D01*
X145860225Y-83575555D01*
X145860222Y-83575551D01*
X145860221Y-83575547D01*
X145811421Y-83491025D01*
X145807942Y-83476688D01*
X145798206Y-83464824D01*
X145786675Y-83448163D01*
X145772692Y-83423945D01*
X145769586Y-83419509D01*
X145769961Y-83419245D01*
X145760627Y-83405438D01*
X145758745Y-83401918D01*
X145740297Y-83385337D01*
X145701085Y-83338606D01*
X145694513Y-83323590D01*
X145684070Y-83315020D01*
X145667744Y-83298872D01*
X145660163Y-83289837D01*
X145651126Y-83282254D01*
X145634977Y-83265928D01*
X145630853Y-83260903D01*
X145611393Y-83248914D01*
X145564661Y-83209702D01*
X145554762Y-83194824D01*
X145544560Y-83189371D01*
X145530754Y-83180038D01*
X145530491Y-83180414D01*
X145526057Y-83177310D01*
X145526055Y-83177308D01*
X145507917Y-83166836D01*
X145501838Y-83163326D01*
X145485173Y-83151792D01*
X145478232Y-83146096D01*
X145458974Y-83138578D01*
X145374449Y-83089777D01*
X145374448Y-83089776D01*
X145366230Y-83086785D01*
X145331900Y-83074289D01*
X145315862Y-83067128D01*
X145305669Y-83061679D01*
X145287592Y-83058162D01*
X145209940Y-83029899D01*
X145142866Y-83018072D01*
X145135629Y-83016343D01*
X145117463Y-83010832D01*
X145100646Y-83010628D01*
X145037536Y-82999500D01*
X145037532Y-82999500D01*
X144950099Y-82999500D01*
X144947968Y-82999500D01*
X144941888Y-82999201D01*
X144905701Y-82995637D01*
X144882903Y-82999500D01*
X88801879Y-82999500D01*
X88798134Y-82999387D01*
X88701100Y-82993517D01*
X88493612Y-82979917D01*
X88486486Y-82979033D01*
X88350791Y-82954167D01*
X88285021Y-82941084D01*
X88184357Y-82921061D01*
X88178012Y-82919447D01*
X88144988Y-82909156D01*
X88038842Y-82876079D01*
X87884973Y-82823848D01*
X87879454Y-82821675D01*
X87743507Y-82760491D01*
X87600160Y-82689799D01*
X87595505Y-82687251D01*
X87467611Y-82609936D01*
X87465240Y-82608428D01*
X87334408Y-82521008D01*
X87330616Y-82518262D01*
X87212446Y-82425682D01*
X87209802Y-82423490D01*
X87091923Y-82320113D01*
X87088961Y-82317339D01*
X86982659Y-82211037D01*
X86979885Y-82208075D01*
X86876508Y-82090196D01*
X86874316Y-82087552D01*
X86781736Y-81969382D01*
X86778990Y-81965590D01*
X86691570Y-81834758D01*
X86690062Y-81832387D01*
X86636721Y-81744151D01*
X86612744Y-81704488D01*
X86610206Y-81699853D01*
X86539514Y-81556505D01*
X86478321Y-81420539D01*
X86476155Y-81415039D01*
X86423920Y-81261157D01*
X86418968Y-81245266D01*
X86380544Y-81121961D01*
X86378942Y-81115664D01*
X86347979Y-80960000D01*
X142059540Y-80960000D01*
X142079326Y-81148256D01*
X142079327Y-81148259D01*
X142137818Y-81328277D01*
X142137821Y-81328284D01*
X142232467Y-81492216D01*
X142264789Y-81528113D01*
X142359129Y-81632888D01*
X142512265Y-81744148D01*
X142512270Y-81744151D01*
X142685192Y-81821142D01*
X142685197Y-81821144D01*
X142870354Y-81860500D01*
X142870355Y-81860500D01*
X143059644Y-81860500D01*
X143059646Y-81860500D01*
X143244803Y-81821144D01*
X143417730Y-81744151D01*
X143570871Y-81632888D01*
X143697533Y-81492216D01*
X143792179Y-81328284D01*
X143850674Y-81148256D01*
X143870460Y-80960000D01*
X143850674Y-80771744D01*
X143792179Y-80591716D01*
X143697533Y-80427784D01*
X143570871Y-80287112D01*
X143570870Y-80287111D01*
X143417734Y-80175851D01*
X143417729Y-80175848D01*
X143244807Y-80098857D01*
X143244802Y-80098855D01*
X143076719Y-80063129D01*
X143059646Y-80059500D01*
X142870354Y-80059500D01*
X142853281Y-80063129D01*
X142685197Y-80098855D01*
X142685192Y-80098857D01*
X142512270Y-80175848D01*
X142512265Y-80175851D01*
X142359129Y-80287111D01*
X142232466Y-80427785D01*
X142137821Y-80591715D01*
X142137818Y-80591722D01*
X142106591Y-80687830D01*
X142079326Y-80771744D01*
X142059540Y-80960000D01*
X86347979Y-80960000D01*
X86345836Y-80949227D01*
X86320963Y-80813502D01*
X86320082Y-80806399D01*
X86306479Y-80598851D01*
X86306047Y-80591716D01*
X86300613Y-80501866D01*
X86300500Y-80498122D01*
X86300500Y-80150003D01*
X124344435Y-80150003D01*
X124364630Y-80329249D01*
X124364631Y-80329254D01*
X124424211Y-80499523D01*
X124503873Y-80626304D01*
X124520184Y-80652262D01*
X124647738Y-80779816D01*
X124800478Y-80875789D01*
X124893518Y-80908345D01*
X124970745Y-80935368D01*
X124970750Y-80935369D01*
X125149996Y-80955565D01*
X125150000Y-80955565D01*
X125150004Y-80955565D01*
X125329249Y-80935369D01*
X125329252Y-80935368D01*
X125329255Y-80935368D01*
X125499522Y-80875789D01*
X125652262Y-80779816D01*
X125779816Y-80652262D01*
X125875789Y-80499522D01*
X125935368Y-80329255D01*
X125937422Y-80311027D01*
X125955565Y-80150003D01*
X125955565Y-80149996D01*
X125935369Y-79970750D01*
X125935368Y-79970745D01*
X125879340Y-79810627D01*
X125875789Y-79800478D01*
X125779816Y-79647738D01*
X125652262Y-79520184D01*
X125499523Y-79424211D01*
X125329254Y-79364631D01*
X125329249Y-79364630D01*
X125150004Y-79344435D01*
X125149996Y-79344435D01*
X124970750Y-79364630D01*
X124970745Y-79364631D01*
X124800476Y-79424211D01*
X124647737Y-79520184D01*
X124520184Y-79647737D01*
X124424211Y-79800476D01*
X124364631Y-79970745D01*
X124364630Y-79970750D01*
X124344435Y-80149996D01*
X124344435Y-80150003D01*
X86300500Y-80150003D01*
X86300500Y-77230936D01*
X87495631Y-77230936D01*
X87526442Y-77432063D01*
X87526445Y-77432075D01*
X87597111Y-77622881D01*
X87597115Y-77622888D01*
X87704745Y-77795567D01*
X87704747Y-77795569D01*
X87704748Y-77795571D01*
X87844941Y-77943053D01*
X87973344Y-78032424D01*
X88011949Y-78059294D01*
X88011950Y-78059294D01*
X88011951Y-78059295D01*
X88198942Y-78139540D01*
X88398259Y-78180500D01*
X89350743Y-78180500D01*
X89502439Y-78165074D01*
X89696579Y-78104162D01*
X89696580Y-78104161D01*
X89696588Y-78104159D01*
X89874502Y-78005409D01*
X90028895Y-77872866D01*
X90153448Y-77711958D01*
X90243060Y-77529271D01*
X90294063Y-77332285D01*
X90299203Y-77230936D01*
X91525631Y-77230936D01*
X91556442Y-77432063D01*
X91556445Y-77432075D01*
X91627111Y-77622881D01*
X91627115Y-77622888D01*
X91734745Y-77795567D01*
X91734747Y-77795569D01*
X91734748Y-77795571D01*
X91874941Y-77943053D01*
X92003344Y-78032424D01*
X92041949Y-78059294D01*
X92041950Y-78059294D01*
X92041951Y-78059295D01*
X92228942Y-78139540D01*
X92428259Y-78180500D01*
X93680743Y-78180500D01*
X93832439Y-78165074D01*
X94026579Y-78104162D01*
X94026580Y-78104161D01*
X94026588Y-78104159D01*
X94106146Y-78060001D01*
X132759540Y-78060001D01*
X132779326Y-78248257D01*
X132779327Y-78248260D01*
X132837818Y-78428278D01*
X132837821Y-78428285D01*
X132932467Y-78592217D01*
X133059129Y-78732888D01*
X133059129Y-78732889D01*
X133212265Y-78844149D01*
X133212270Y-78844152D01*
X133385192Y-78921143D01*
X133385197Y-78921145D01*
X133570354Y-78960501D01*
X133570355Y-78960501D01*
X133759644Y-78960501D01*
X133759646Y-78960501D01*
X133944803Y-78921145D01*
X134117730Y-78844152D01*
X134270871Y-78732889D01*
X134397533Y-78592217D01*
X134492179Y-78428285D01*
X134550674Y-78248257D01*
X134570460Y-78060001D01*
X134550674Y-77871745D01*
X134492179Y-77691717D01*
X134397533Y-77527785D01*
X134270871Y-77387113D01*
X134270870Y-77387112D01*
X134117734Y-77275852D01*
X134117729Y-77275849D01*
X133944807Y-77198858D01*
X133944802Y-77198856D01*
X133799001Y-77167866D01*
X133759646Y-77159501D01*
X133570354Y-77159501D01*
X133537897Y-77166399D01*
X133385197Y-77198856D01*
X133385192Y-77198858D01*
X133212270Y-77275849D01*
X133212265Y-77275852D01*
X133059129Y-77387112D01*
X132932466Y-77527786D01*
X132837821Y-77691716D01*
X132837818Y-77691723D01*
X132804076Y-77795572D01*
X132779326Y-77871745D01*
X132759540Y-78060001D01*
X94106146Y-78060001D01*
X94204502Y-78005409D01*
X94358895Y-77872866D01*
X94483448Y-77711958D01*
X94573060Y-77529271D01*
X94624063Y-77332285D01*
X94634369Y-77129064D01*
X94603556Y-76927929D01*
X94532886Y-76737113D01*
X94425252Y-76564429D01*
X94285059Y-76416947D01*
X94186587Y-76348409D01*
X94118050Y-76300705D01*
X93931056Y-76220459D01*
X93731741Y-76179500D01*
X93210591Y-76179500D01*
X93143552Y-76159815D01*
X93097797Y-76107011D01*
X93087853Y-76037853D01*
X93096030Y-76008047D01*
X93097879Y-76003580D01*
X93140687Y-75900236D01*
X93160466Y-75750000D01*
X93140687Y-75599764D01*
X93082698Y-75459767D01*
X92990451Y-75339549D01*
X92886785Y-75260003D01*
X94859435Y-75260003D01*
X94879630Y-75439249D01*
X94879631Y-75439254D01*
X94939211Y-75609523D01*
X94949432Y-75625789D01*
X95035184Y-75762262D01*
X95162738Y-75889816D01*
X95315478Y-75985789D01*
X95471070Y-76040233D01*
X95485745Y-76045368D01*
X95485750Y-76045369D01*
X95664996Y-76065565D01*
X95665000Y-76065565D01*
X95665004Y-76065565D01*
X95844249Y-76045369D01*
X95844252Y-76045368D01*
X95844255Y-76045368D01*
X96014522Y-75985789D01*
X96167262Y-75889816D01*
X96294816Y-75762262D01*
X96390789Y-75609522D01*
X96450368Y-75439255D01*
X96450369Y-75439249D01*
X96470565Y-75260003D01*
X96470565Y-75259996D01*
X96450369Y-75080750D01*
X96450368Y-75080745D01*
X96390788Y-74910476D01*
X96294815Y-74757737D01*
X96237081Y-74700003D01*
X126994435Y-74700003D01*
X127014630Y-74879249D01*
X127014631Y-74879254D01*
X127074211Y-75049523D01*
X127152740Y-75174500D01*
X127170184Y-75202262D01*
X127297738Y-75329816D01*
X127450478Y-75425789D01*
X127488959Y-75439254D01*
X127620745Y-75485368D01*
X127620750Y-75485369D01*
X127799996Y-75505565D01*
X127800000Y-75505565D01*
X127800004Y-75505565D01*
X127979249Y-75485369D01*
X127979252Y-75485368D01*
X127979255Y-75485368D01*
X128149522Y-75425789D01*
X128302262Y-75329816D01*
X128429816Y-75202262D01*
X128525789Y-75049522D01*
X128578108Y-74900003D01*
X131694435Y-74900003D01*
X131714630Y-75079249D01*
X131714631Y-75079254D01*
X131774211Y-75249523D01*
X131824662Y-75329815D01*
X131870184Y-75402262D01*
X131997738Y-75529816D01*
X132150478Y-75625789D01*
X132320745Y-75685368D01*
X132320750Y-75685369D01*
X132499996Y-75705565D01*
X132500000Y-75705565D01*
X132500004Y-75705565D01*
X132679249Y-75685369D01*
X132679252Y-75685368D01*
X132679255Y-75685368D01*
X132849522Y-75625789D01*
X133002262Y-75529816D01*
X133129816Y-75402262D01*
X133225789Y-75249522D01*
X133285368Y-75079255D01*
X133288718Y-75049522D01*
X133305565Y-74900003D01*
X133305565Y-74899996D01*
X133285369Y-74720750D01*
X133285368Y-74720745D01*
X133225788Y-74550476D01*
X133129815Y-74397737D01*
X133002262Y-74270184D01*
X132849523Y-74174211D01*
X132679254Y-74114631D01*
X132679249Y-74114630D01*
X132500004Y-74094435D01*
X132499996Y-74094435D01*
X132320750Y-74114630D01*
X132320745Y-74114631D01*
X132150476Y-74174211D01*
X131997737Y-74270184D01*
X131870184Y-74397737D01*
X131774211Y-74550476D01*
X131714631Y-74720745D01*
X131714630Y-74720750D01*
X131694435Y-74899996D01*
X131694435Y-74900003D01*
X128578108Y-74900003D01*
X128585368Y-74879255D01*
X128605565Y-74700000D01*
X128588718Y-74550478D01*
X128585369Y-74520750D01*
X128585368Y-74520745D01*
X128542326Y-74397738D01*
X128525789Y-74350478D01*
X128429816Y-74197738D01*
X128302262Y-74070184D01*
X128149523Y-73974211D01*
X127979254Y-73914631D01*
X127979249Y-73914630D01*
X127800004Y-73894435D01*
X127799996Y-73894435D01*
X127620750Y-73914630D01*
X127620745Y-73914631D01*
X127450476Y-73974211D01*
X127297737Y-74070184D01*
X127170184Y-74197737D01*
X127074211Y-74350476D01*
X127014631Y-74520745D01*
X127014630Y-74520750D01*
X126994435Y-74699996D01*
X126994435Y-74700003D01*
X96237081Y-74700003D01*
X96167262Y-74630184D01*
X96014523Y-74534211D01*
X95844254Y-74474631D01*
X95844249Y-74474630D01*
X95665004Y-74454435D01*
X95664996Y-74454435D01*
X95485750Y-74474630D01*
X95485745Y-74474631D01*
X95315476Y-74534211D01*
X95162737Y-74630184D01*
X95035184Y-74757737D01*
X94939211Y-74910476D01*
X94879631Y-75080745D01*
X94879630Y-75080750D01*
X94859435Y-75259996D01*
X94859435Y-75260003D01*
X92886785Y-75260003D01*
X92870233Y-75247302D01*
X92870229Y-75247300D01*
X92761497Y-75202262D01*
X92730236Y-75189313D01*
X92716171Y-75187461D01*
X92617727Y-75174500D01*
X92617720Y-75174500D01*
X92542280Y-75174500D01*
X92542272Y-75174500D01*
X92429764Y-75189313D01*
X92429763Y-75189313D01*
X92289770Y-75247300D01*
X92289767Y-75247301D01*
X92289767Y-75247302D01*
X92169549Y-75339549D01*
X92093042Y-75439255D01*
X92077300Y-75459770D01*
X92019313Y-75599763D01*
X92019312Y-75599765D01*
X91999534Y-75749999D01*
X91999534Y-75750000D01*
X92019312Y-75900234D01*
X92019313Y-75900236D01*
X92077300Y-76040230D01*
X92077302Y-76040234D01*
X92122530Y-76099175D01*
X92147725Y-76164344D01*
X92133687Y-76232789D01*
X92084873Y-76282779D01*
X92084333Y-76283081D01*
X91955496Y-76354591D01*
X91955495Y-76354592D01*
X91801106Y-76487132D01*
X91801104Y-76487134D01*
X91676554Y-76648037D01*
X91676553Y-76648040D01*
X91586940Y-76830728D01*
X91535937Y-77027714D01*
X91525631Y-77230936D01*
X90299203Y-77230936D01*
X90304369Y-77129064D01*
X90273556Y-76927929D01*
X90202886Y-76737113D01*
X90095252Y-76564429D01*
X89955059Y-76416947D01*
X89856587Y-76348409D01*
X89788050Y-76300705D01*
X89601056Y-76220459D01*
X89401741Y-76179500D01*
X88449258Y-76179500D01*
X88449257Y-76179500D01*
X88297560Y-76194925D01*
X88103420Y-76255837D01*
X88103405Y-76255844D01*
X87925500Y-76354589D01*
X87925495Y-76354592D01*
X87771106Y-76487132D01*
X87771104Y-76487134D01*
X87646554Y-76648037D01*
X87646553Y-76648040D01*
X87556940Y-76830728D01*
X87505937Y-77027714D01*
X87495631Y-77230936D01*
X86300500Y-77230936D01*
X86300500Y-68590936D01*
X87495631Y-68590936D01*
X87526442Y-68792063D01*
X87526445Y-68792075D01*
X87597111Y-68982881D01*
X87597115Y-68982888D01*
X87704745Y-69155567D01*
X87704747Y-69155569D01*
X87704748Y-69155571D01*
X87844941Y-69303053D01*
X87973344Y-69392424D01*
X88011949Y-69419294D01*
X88011950Y-69419294D01*
X88011951Y-69419295D01*
X88198942Y-69499540D01*
X88398259Y-69540500D01*
X89350743Y-69540500D01*
X89502439Y-69525074D01*
X89696579Y-69464162D01*
X89696580Y-69464161D01*
X89696588Y-69464159D01*
X89874502Y-69365409D01*
X90028895Y-69232866D01*
X90153448Y-69071958D01*
X90243060Y-68889271D01*
X90294063Y-68692285D01*
X90299203Y-68590936D01*
X91525631Y-68590936D01*
X91556442Y-68792063D01*
X91556445Y-68792075D01*
X91627111Y-68982881D01*
X91627115Y-68982888D01*
X91734745Y-69155567D01*
X91734747Y-69155569D01*
X91734748Y-69155571D01*
X91874941Y-69303053D01*
X92041951Y-69419295D01*
X92072329Y-69432331D01*
X92126173Y-69476857D01*
X92147396Y-69543426D01*
X92129261Y-69610901D01*
X92121806Y-69621767D01*
X92077301Y-69679767D01*
X92077300Y-69679769D01*
X92019313Y-69819763D01*
X92019312Y-69819765D01*
X91999534Y-69969999D01*
X91999534Y-69970000D01*
X92019312Y-70120234D01*
X92019313Y-70120236D01*
X92077302Y-70260233D01*
X92169549Y-70380451D01*
X92289767Y-70472698D01*
X92429764Y-70530687D01*
X92542280Y-70545500D01*
X92542287Y-70545500D01*
X92617713Y-70545500D01*
X92617720Y-70545500D01*
X92730236Y-70530687D01*
X92870233Y-70472698D01*
X92886777Y-70460003D01*
X94859435Y-70460003D01*
X94879630Y-70639249D01*
X94879631Y-70639254D01*
X94939211Y-70809523D01*
X95035184Y-70962262D01*
X95162738Y-71089816D01*
X95315478Y-71185789D01*
X95485745Y-71245367D01*
X95485745Y-71245368D01*
X95485750Y-71245369D01*
X95664996Y-71265565D01*
X95665000Y-71265565D01*
X95665004Y-71265565D01*
X95844249Y-71245369D01*
X95844252Y-71245368D01*
X95844255Y-71245368D01*
X96014522Y-71185789D01*
X96167262Y-71089816D01*
X96294816Y-70962262D01*
X96390789Y-70809522D01*
X96450368Y-70639255D01*
X96450369Y-70639249D01*
X96470565Y-70460003D01*
X96470565Y-70459996D01*
X96450369Y-70280750D01*
X96450368Y-70280745D01*
X96443189Y-70260229D01*
X96390789Y-70110478D01*
X96294816Y-69957738D01*
X96167262Y-69830184D01*
X96150677Y-69819763D01*
X96014523Y-69734211D01*
X95844254Y-69674631D01*
X95844249Y-69674630D01*
X95665004Y-69654435D01*
X95664996Y-69654435D01*
X95485750Y-69674630D01*
X95485745Y-69674631D01*
X95315476Y-69734211D01*
X95162737Y-69830184D01*
X95035184Y-69957737D01*
X94939211Y-70110476D01*
X94879631Y-70280745D01*
X94879630Y-70280750D01*
X94859435Y-70459996D01*
X94859435Y-70460003D01*
X92886777Y-70460003D01*
X92990451Y-70380451D01*
X93082698Y-70260233D01*
X93140687Y-70120236D01*
X93160466Y-69970000D01*
X93140687Y-69819764D01*
X93096030Y-69711953D01*
X93089370Y-69650003D01*
X112994435Y-69650003D01*
X113014630Y-69829249D01*
X113014631Y-69829254D01*
X113074211Y-69999523D01*
X113143928Y-70110476D01*
X113170184Y-70152262D01*
X113297738Y-70279816D01*
X113450478Y-70375789D01*
X113620744Y-70435367D01*
X113620745Y-70435368D01*
X113620750Y-70435369D01*
X113799996Y-70455565D01*
X113800000Y-70455565D01*
X113800004Y-70455565D01*
X113979249Y-70435369D01*
X113979252Y-70435368D01*
X113979255Y-70435368D01*
X114149522Y-70375789D01*
X114302262Y-70279816D01*
X114429816Y-70152262D01*
X114525789Y-69999522D01*
X114585368Y-69829255D01*
X114585369Y-69829249D01*
X114605565Y-69650003D01*
X114605565Y-69649996D01*
X114585369Y-69470750D01*
X114585368Y-69470745D01*
X114584940Y-69469522D01*
X114525789Y-69300478D01*
X114429816Y-69147738D01*
X114402081Y-69120003D01*
X117259435Y-69120003D01*
X117279630Y-69299249D01*
X117279631Y-69299254D01*
X117339211Y-69469523D01*
X117428045Y-69610901D01*
X117435184Y-69622262D01*
X117562738Y-69749816D01*
X117653080Y-69806582D01*
X117689162Y-69829254D01*
X117715478Y-69845789D01*
X117885745Y-69905368D01*
X117885754Y-69905369D01*
X117886207Y-69905473D01*
X117886477Y-69905624D01*
X117892318Y-69907668D01*
X117891960Y-69908690D01*
X117947191Y-69939573D01*
X117976377Y-69993017D01*
X117977333Y-69992683D01*
X117979362Y-69998483D01*
X117979523Y-69998777D01*
X117979631Y-69999250D01*
X117979632Y-69999255D01*
X118011538Y-70090437D01*
X118039210Y-70169521D01*
X118108513Y-70279815D01*
X118135184Y-70322262D01*
X118262738Y-70449816D01*
X118299156Y-70472699D01*
X118391441Y-70530686D01*
X118415478Y-70545789D01*
X118585745Y-70605367D01*
X118585745Y-70605368D01*
X118585750Y-70605369D01*
X118764996Y-70625565D01*
X118765000Y-70625565D01*
X118765004Y-70625565D01*
X118944249Y-70605369D01*
X118944252Y-70605368D01*
X118944255Y-70605368D01*
X119114522Y-70545789D01*
X119267262Y-70449816D01*
X119377322Y-70339755D01*
X119438641Y-70306273D01*
X119508333Y-70311257D01*
X119552676Y-70339754D01*
X119662738Y-70449816D01*
X119699156Y-70472699D01*
X119791441Y-70530686D01*
X119815478Y-70545789D01*
X119985745Y-70605367D01*
X119985745Y-70605368D01*
X119985750Y-70605369D01*
X120164996Y-70625565D01*
X120165000Y-70625565D01*
X120165004Y-70625565D01*
X120344249Y-70605369D01*
X120344252Y-70605368D01*
X120344255Y-70605368D01*
X120514522Y-70545789D01*
X120667262Y-70449816D01*
X120794816Y-70322262D01*
X120890789Y-70169522D01*
X120950368Y-69999255D01*
X120950369Y-69999243D01*
X120950473Y-69998793D01*
X120950624Y-69998522D01*
X120952668Y-69992682D01*
X120953690Y-69993039D01*
X120984573Y-69937809D01*
X121038017Y-69908626D01*
X121037682Y-69907668D01*
X121043504Y-69905630D01*
X121043793Y-69905473D01*
X121044243Y-69905369D01*
X121044255Y-69905368D01*
X121214522Y-69845789D01*
X121367262Y-69749816D01*
X121494816Y-69622262D01*
X121590789Y-69469522D01*
X121650368Y-69299255D01*
X121657848Y-69232867D01*
X121670565Y-69120003D01*
X121670565Y-69119996D01*
X121650369Y-68940750D01*
X121650368Y-68940745D01*
X121650367Y-68940745D01*
X121590789Y-68770478D01*
X121494816Y-68617738D01*
X121384759Y-68507681D01*
X121351274Y-68446358D01*
X121356258Y-68376666D01*
X121384759Y-68332319D01*
X121429154Y-68287924D01*
X121494816Y-68222262D01*
X121590789Y-68069522D01*
X121650368Y-67899255D01*
X121656241Y-67847132D01*
X121670565Y-67720003D01*
X121670565Y-67719996D01*
X121650369Y-67540750D01*
X121650368Y-67540745D01*
X121590788Y-67370476D01*
X121551582Y-67308080D01*
X121494816Y-67217738D01*
X121367262Y-67090184D01*
X121281801Y-67036485D01*
X121214521Y-66994210D01*
X121135437Y-66966538D01*
X121044255Y-66934632D01*
X121044251Y-66934631D01*
X121044250Y-66934631D01*
X121043777Y-66934523D01*
X121043501Y-66934369D01*
X121037683Y-66932333D01*
X121038039Y-66931313D01*
X120982798Y-66900416D01*
X120953626Y-66846982D01*
X120952668Y-66847318D01*
X120950630Y-66841496D01*
X120950473Y-66841207D01*
X120950369Y-66840754D01*
X120950368Y-66840745D01*
X120890789Y-66670478D01*
X120794816Y-66517738D01*
X120667262Y-66390184D01*
X120667262Y-66390183D01*
X120514523Y-66294211D01*
X120344254Y-66234631D01*
X120344249Y-66234630D01*
X120165004Y-66214435D01*
X120164996Y-66214435D01*
X119985750Y-66234630D01*
X119985745Y-66234631D01*
X119815476Y-66294211D01*
X119662737Y-66390184D01*
X119552681Y-66500241D01*
X119491358Y-66533726D01*
X119421666Y-66528742D01*
X119377319Y-66500241D01*
X119267262Y-66390184D01*
X119114523Y-66294211D01*
X118944254Y-66234631D01*
X118944249Y-66234630D01*
X118765004Y-66214435D01*
X118764996Y-66214435D01*
X118585750Y-66234630D01*
X118585745Y-66234631D01*
X118415476Y-66294211D01*
X118262737Y-66390184D01*
X118135184Y-66517737D01*
X118039210Y-66670478D01*
X117979628Y-66840755D01*
X117979518Y-66841241D01*
X117979360Y-66841522D01*
X117977333Y-66847317D01*
X117976317Y-66846961D01*
X117945400Y-66902215D01*
X117891984Y-66931381D01*
X117892317Y-66932333D01*
X117886541Y-66934353D01*
X117886241Y-66934518D01*
X117885755Y-66934628D01*
X117715478Y-66994210D01*
X117562737Y-67090184D01*
X117435184Y-67217737D01*
X117339211Y-67370476D01*
X117279631Y-67540745D01*
X117279630Y-67540750D01*
X117259435Y-67719996D01*
X117259435Y-67720003D01*
X117279630Y-67899249D01*
X117279631Y-67899254D01*
X117339211Y-68069523D01*
X117435184Y-68222262D01*
X117545241Y-68332319D01*
X117578726Y-68393642D01*
X117573742Y-68463334D01*
X117545241Y-68507681D01*
X117435184Y-68617737D01*
X117339211Y-68770476D01*
X117279631Y-68940745D01*
X117279630Y-68940750D01*
X117259435Y-69119996D01*
X117259435Y-69120003D01*
X114402081Y-69120003D01*
X114302262Y-69020184D01*
X114242906Y-68982888D01*
X114149523Y-68924211D01*
X113979254Y-68864631D01*
X113979249Y-68864630D01*
X113800004Y-68844435D01*
X113799996Y-68844435D01*
X113620750Y-68864630D01*
X113620745Y-68864631D01*
X113450476Y-68924211D01*
X113297737Y-69020184D01*
X113170184Y-69147737D01*
X113074211Y-69300476D01*
X113014631Y-69470745D01*
X113014630Y-69470750D01*
X112994435Y-69649996D01*
X112994435Y-69650003D01*
X93089370Y-69650003D01*
X93088561Y-69642483D01*
X93119836Y-69580004D01*
X93179925Y-69544352D01*
X93210591Y-69540500D01*
X93680743Y-69540500D01*
X93832439Y-69525074D01*
X94026579Y-69464162D01*
X94026580Y-69464161D01*
X94026588Y-69464159D01*
X94204502Y-69365409D01*
X94358895Y-69232866D01*
X94483448Y-69071958D01*
X94573060Y-68889271D01*
X94624063Y-68692285D01*
X94634369Y-68489064D01*
X94603556Y-68287929D01*
X94532886Y-68097113D01*
X94425252Y-67924429D01*
X94285059Y-67776947D01*
X94186587Y-67708409D01*
X94118050Y-67660705D01*
X93931056Y-67580459D01*
X93731741Y-67539500D01*
X92479258Y-67539500D01*
X92479257Y-67539500D01*
X92327560Y-67554925D01*
X92133420Y-67615837D01*
X92133405Y-67615844D01*
X91955500Y-67714589D01*
X91955495Y-67714592D01*
X91801106Y-67847132D01*
X91801104Y-67847134D01*
X91676554Y-68008037D01*
X91676553Y-68008040D01*
X91586940Y-68190728D01*
X91535937Y-68387714D01*
X91525631Y-68590936D01*
X90299203Y-68590936D01*
X90304369Y-68489064D01*
X90273556Y-68287929D01*
X90202886Y-68097113D01*
X90095252Y-67924429D01*
X89955059Y-67776947D01*
X89856587Y-67708409D01*
X89788050Y-67660705D01*
X89601056Y-67580459D01*
X89401741Y-67539500D01*
X88449258Y-67539500D01*
X88449257Y-67539500D01*
X88297560Y-67554925D01*
X88103420Y-67615837D01*
X88103405Y-67615844D01*
X87925500Y-67714589D01*
X87925495Y-67714592D01*
X87771106Y-67847132D01*
X87771104Y-67847134D01*
X87646554Y-68008037D01*
X87646553Y-68008040D01*
X87556940Y-68190728D01*
X87505937Y-68387714D01*
X87495631Y-68590936D01*
X86300500Y-68590936D01*
X86300500Y-67351875D01*
X86300613Y-67348132D01*
X86300872Y-67343835D01*
X86306489Y-67250972D01*
X86320082Y-67043596D01*
X86320962Y-67036501D01*
X86345836Y-66900771D01*
X86378944Y-66734326D01*
X86380547Y-66728029D01*
X86423922Y-66588834D01*
X86476160Y-66434946D01*
X86478311Y-66429481D01*
X86539520Y-66293481D01*
X86610211Y-66150136D01*
X86612733Y-66145530D01*
X86690083Y-66017577D01*
X86691550Y-66015270D01*
X86778995Y-65884400D01*
X86781718Y-65880639D01*
X86874343Y-65762412D01*
X86876487Y-65759827D01*
X86979905Y-65641901D01*
X86982629Y-65638992D01*
X87088992Y-65532629D01*
X87091901Y-65529905D01*
X87209827Y-65426487D01*
X87212412Y-65424343D01*
X87330639Y-65331718D01*
X87334400Y-65328995D01*
X87465270Y-65241550D01*
X87467577Y-65240083D01*
X87595530Y-65162733D01*
X87600136Y-65160211D01*
X87743481Y-65089520D01*
X87879481Y-65028311D01*
X87884946Y-65026160D01*
X88038812Y-64973929D01*
X88178029Y-64930547D01*
X88184326Y-64928944D01*
X88350771Y-64895836D01*
X88486501Y-64870962D01*
X88493596Y-64870082D01*
X88701027Y-64856486D01*
X88798131Y-64850613D01*
X88801876Y-64850500D01*
X103357276Y-64850500D01*
X103357276Y-64850499D01*
X103547577Y-64829057D01*
X103550762Y-64828782D01*
X103627038Y-64824168D01*
X103644931Y-64818089D01*
X103669826Y-64815284D01*
X103669829Y-64815283D01*
X103669840Y-64815282D01*
X103891039Y-64764794D01*
X103953121Y-64753418D01*
X103964537Y-64748019D01*
X103976500Y-64745289D01*
X104232770Y-64655616D01*
X104268839Y-64644378D01*
X104270446Y-64643379D01*
X104270179Y-64642734D01*
X104273387Y-64641404D01*
X104273394Y-64641402D01*
X104556789Y-64504926D01*
X104823123Y-64337577D01*
X105069044Y-64141461D01*
X105291461Y-63919044D01*
X105487577Y-63673123D01*
X105654926Y-63406789D01*
X105791402Y-63123394D01*
X105791404Y-63123387D01*
X105792734Y-63120179D01*
X105793635Y-63120552D01*
X105794004Y-63120037D01*
X105805619Y-63082763D01*
X105843461Y-62974616D01*
X105895289Y-62826500D01*
X105898019Y-62814537D01*
X105902938Y-62805741D01*
X105914794Y-62741039D01*
X105965282Y-62519840D01*
X105968089Y-62494931D01*
X105973926Y-62481037D01*
X105978782Y-62400762D01*
X105979059Y-62397563D01*
X106000500Y-62207273D01*
X106000500Y-62051741D01*
X106000598Y-62048264D01*
X106006987Y-61934488D01*
X106008220Y-61914107D01*
X106019232Y-61732042D01*
X106019991Y-61725438D01*
X106044789Y-61579487D01*
X106067915Y-61453297D01*
X106075730Y-61410649D01*
X106077129Y-61404699D01*
X106119885Y-61256288D01*
X106169198Y-61098044D01*
X106171103Y-61092780D01*
X106231239Y-60947598D01*
X106298385Y-60798406D01*
X106300623Y-60793932D01*
X106377386Y-60655041D01*
X106461521Y-60515865D01*
X106463979Y-60512116D01*
X106555504Y-60383124D01*
X106557208Y-60380838D01*
X106656460Y-60254153D01*
X106658955Y-60251171D01*
X106764563Y-60132997D01*
X106766864Y-60130562D01*
X106880562Y-60016864D01*
X106882997Y-60014563D01*
X107001171Y-59908955D01*
X107004153Y-59906460D01*
X107130838Y-59807208D01*
X107133124Y-59805504D01*
X107262116Y-59713979D01*
X107265865Y-59711521D01*
X107405030Y-59627392D01*
X107543932Y-59550623D01*
X107548406Y-59548385D01*
X107697598Y-59481239D01*
X107842780Y-59421103D01*
X107848044Y-59419198D01*
X108006288Y-59369885D01*
X108154699Y-59327129D01*
X108160649Y-59325730D01*
X108329463Y-59294793D01*
X108475438Y-59269991D01*
X108482042Y-59269232D01*
X108684465Y-59256988D01*
X108711248Y-59255484D01*
X108798265Y-59250598D01*
X108801742Y-59250500D01*
X145948378Y-59250500D01*
X145951619Y-59250584D01*
G37*
%TD.AperFunction*%
%TD*%
M02*
